<svg width="76" height="76" viewBox="0 0 76 76" fill="none" xmlns="http://www.w3.org/2000/svg">
<circle cx="38" cy="38" r="38" fill="#F2F3F7"/>
<path d="M22.832 53.4082C22.832 48.1798 26.5096 43.7264 31.5075 42.9024L31.9576 42.8282C35.9597 42.1684 40.0377 42.1684 44.0398 42.8282L44.4899 42.9024C49.4878 43.7264 53.1654 48.1798 53.1654 53.4082C53.1654 55.668 51.392 57.5 49.2044 57.5H26.793C24.6054 57.5 22.832 55.668 22.832 53.4082Z" fill="white"/>
<path d="M46.846 27.0312C46.846 31.7429 42.8849 35.5625 37.9987 35.5625C33.1126 35.5625 29.1515 31.7429 29.1515 27.0312C29.1515 22.3196 33.1126 18.5 37.9987 18.5C42.8849 18.5 46.846 22.3196 46.846 27.0312Z" fill="white"/>
<path d="M31.9576 42.8282L31.7136 41.3482H31.7136L31.9576 42.8282ZM44.0398 42.8282L44.2838 41.3482H44.2838L44.0398 42.8282ZM44.4899 42.9024L44.2459 44.3824L44.2459 44.3824L44.4899 42.9024ZM31.5075 42.9024L31.7515 44.3824L31.7515 44.3824L31.5075 42.9024ZM31.7515 44.3824L32.2017 44.3082L31.7136 41.3482L31.2634 41.4224L31.7515 44.3824ZM43.7957 44.3082L44.2459 44.3824L44.734 41.4224L44.2838 41.3482L43.7957 44.3082ZM49.2044 56H26.793V59H49.2044V56ZM32.2016 44.3082C36.0421 43.675 39.9553 43.675 43.7957 44.3082L44.2838 41.3482C40.1201 40.6617 35.8773 40.6617 31.7136 41.3482L32.2016 44.3082ZM21.332 53.4082C21.332 56.4501 23.7314 59 26.793 59V56C25.4794 56 24.332 54.8859 24.332 53.4082H21.332ZM51.6654 53.4082C51.6654 54.8859 50.518 56 49.2044 56V59C52.266 59 54.6654 56.4501 54.6654 53.4082H51.6654ZM54.6654 53.4082C54.6654 47.4811 50.4908 42.3715 44.7339 41.4224L44.2459 44.3824C48.4848 45.0813 51.6654 48.8786 51.6654 53.4082H54.6654ZM24.332 53.4082C24.332 48.8786 27.5125 45.0813 31.7515 44.3824L31.2634 41.4224C25.5066 42.3715 21.332 47.4811 21.332 53.4082H24.332ZM45.346 27.0312C45.346 30.8636 42.1084 34.0625 37.9987 34.0625V37.0625C43.6615 37.0625 48.346 32.6223 48.346 27.0312H45.346ZM37.9987 34.0625C33.8891 34.0625 30.6515 30.8636 30.6515 27.0312H27.6515C27.6515 32.6223 32.336 37.0625 37.9987 37.0625V34.0625ZM30.6515 27.0312C30.6515 23.1989 33.8891 20 37.9987 20V17C32.336 17 27.6515 21.4402 27.6515 27.0312H30.6515ZM37.9987 20C42.1084 20 45.346 23.1989 45.346 27.0312H48.346C48.346 21.4402 43.6615 17 37.9987 17V20Z" fill="white"/>
</svg>
