<svg width="486" height="269" viewBox="0 0 486 269" fill="none" xmlns="http://www.w3.org/2000/svg">
<g clip-path="url(#clip0_223_3312)">
<path fill-rule="evenodd" clip-rule="evenodd" d="M57.1781 -0.00031364H134.107H136.077H171.53C202.977 -0.00031364 228.706 25.9451 228.706 57.656V103.577V144.141V201.797H171.53V129.726V103.577V72.07C171.53 64.1421 165.098 57.656 157.236 57.656H136.077H134.107H71.4719C63.6107 57.656 57.1781 64.1434 57.1781 72.07V129.726C57.1781 137.654 63.6107 144.14 71.4719 144.14H142.942L114.354 201.797H57.1781C25.732 201.797 0.00195312 175.851 0.00195312 144.14V57.6554C0.00195312 25.9445 25.7313 -0.000976562 57.1781 -0.000976562V-0.00031364Z" fill="#1A92D0"/>
<path fill-rule="evenodd" clip-rule="evenodd" d="M57.1781 -0.00031364H134.107H136.077H171.53C202.977 -0.00031364 228.706 25.9451 228.706 57.656V103.577V144.141V201.797H171.53V129.726V103.577V72.07C171.53 64.1421 165.098 57.656 157.236 57.656H136.077H134.107H71.4719C63.6107 57.656 57.1781 64.1434 57.1781 72.07V129.726C57.1781 137.654 63.6107 144.14 71.4719 144.14H142.942L114.354 201.797H57.1781C25.732 201.797 0.00195312 175.851 0.00195312 144.14V57.6554C0.00195312 25.9445 25.7313 -0.000976562 57.1781 -0.000976562V-0.00031364Z" fill="#1A92D0"/>
<path fill-rule="evenodd" clip-rule="evenodd" d="M314.471 -6.94995e-05H338.669H343.059H428.823C460.27 -6.94995e-05 485.999 25.9487 485.999 57.6563V86.4848L428.823 115.313V72.0702C428.823 64.1423 422.388 57.6563 414.529 57.6563H343.059H338.669H328.766C320.904 57.6563 314.472 64.143 314.472 72.0702V129.727C314.472 137.654 320.904 144.14 328.766 144.14H338.971H343.059H394.522H400.236H414.529H428.823H485.998L485.999 201.797H428.823H394.522H343.059H338.971H314.471C283.024 201.797 257.295 175.851 257.295 144.14V57.6556C257.295 25.9447 283.024 -0.000732422 314.471 -0.000732422V-6.94995e-05Z" fill="#BBCF17"/>
<path fill-rule="evenodd" clip-rule="evenodd" d="M314.471 -6.94995e-05H338.669H343.059H428.823C460.27 -6.94995e-05 485.999 25.9487 485.999 57.6563V86.4848L428.823 115.313V72.0702C428.823 64.1423 422.388 57.6563 414.529 57.6563H343.059H338.669H328.766C320.904 57.6563 314.472 64.143 314.472 72.0702V129.727C314.472 137.654 320.904 144.14 328.766 144.14H338.971H343.059H394.522H400.236H414.529H428.823H485.998L485.999 201.797H428.823H394.522H343.059H338.971H314.471C283.024 201.797 257.295 175.851 257.295 144.14V57.6556C257.295 25.9447 283.024 -0.000732422 314.471 -0.000732422V-6.94995e-05Z" fill="#BBCF17"/>
<path d="M187.488 242.966V235.148H164.302C160.533 235.148 157.261 236.511 154.559 239.164C151.856 241.818 150.504 245.261 150.504 249.491V254.154C150.504 258.386 151.784 261.828 154.344 264.482C156.905 267.135 160.247 268.498 164.301 268.498H186.776V260.68H167.147C164.942 260.68 163.163 260.035 161.884 258.672C160.604 257.31 159.963 255.445 159.963 253.079V250.568C159.963 248.201 160.604 246.336 161.884 244.974C163.163 243.611 165.013 242.966 167.36 242.966H170.849H178.954H187.488V242.966Z" fill="#2B2A29"/>
<path d="M140.997 268.498V235.148H131.537V247.269H108.778V235.148H99.3184V268.498H108.778V255.014H131.537V268.498H140.997Z" fill="#2B2A29"/>
<path d="M75.9403 268.498C79.5672 268.498 82.7668 267.135 85.6127 264.338C88.4579 261.541 89.8798 258.099 89.8798 254.011V249.492C89.8798 245.405 88.4579 241.962 85.541 239.237C82.6261 236.511 79.3535 235.148 75.7267 235.148H63.7068C60.0089 235.148 56.666 236.511 53.6788 239.237C50.6915 241.962 49.1973 245.405 49.1973 249.492V254.154C49.1973 258.243 50.6205 261.685 53.4658 264.41C56.3097 267.135 59.5106 268.498 63.1374 268.498H75.9403ZM80.2785 250.282V253.222C80.2785 255.303 79.5679 257.095 78.1446 258.529C76.7226 259.963 75.016 260.681 73.0957 260.681H66.0543C64.1341 260.681 62.4268 259.963 61.0042 258.529C59.5829 257.095 58.8703 255.303 58.8703 253.222V250.282C58.8703 248.13 59.5822 246.336 61.0042 244.974C62.4268 243.611 64.1334 242.893 66.1253 242.893H73.1667C75.229 242.893 76.9356 243.611 78.2872 244.974C79.6389 246.336 80.3495 248.13 80.3495 250.282H80.2785Z" fill="#2B2A29"/>
<path d="M455.748 268.498V251.643C455.748 248.488 456.458 246.265 457.953 244.903C459.446 243.539 461.296 242.893 463.572 242.893H484.766V235.148H460.726C456.815 235.148 453.402 236.583 450.485 239.38C447.569 242.177 446.146 245.69 446.146 249.922V268.498H455.748Z" fill="#2B2A29"/>
<path d="M436.85 268.498V235.148H427.39V247.269H404.631V235.148H395.172V268.498H404.631V255.014H427.39V268.498H436.85Z" fill="#2B2A29"/>
<path d="M375.917 247.054V268.498H385.377V235.148H377.198L353.87 256.449V235.148H344.34V268.498H352.661L375.917 247.054Z" fill="#2B2A29"/>
<path d="M337.745 242.966V235.148H296.779V242.966H312.355V268.498H321.814V242.966H337.745Z" fill="#2B2A29"/>
<path d="M268.281 242.893H281.012V268.498H290.543V235.148H260.813L258.822 251.07C258.324 254.799 257.471 257.453 256.261 259.03C255.052 260.608 253.274 261.398 250.927 261.398H248.58V269H252.207C256.972 269 260.457 267.565 262.591 264.697C264.725 261.828 266.147 257.596 266.929 251.93L268.281 242.893Z" fill="#2B2A29"/>
<path d="M241.198 248.773C241.037 245 239.617 241.802 236.872 239.239C233.955 236.512 230.681 235.148 227.052 235.148H218.141H217.693H209.159C205.458 235.148 202.113 236.512 199.125 239.239C196.136 241.966 194.641 245.41 194.641 249.501V254.165C194.641 258.256 196.064 261.7 198.911 264.426C201.758 267.153 204.96 268.518 208.59 268.518H221.845L225.478 260.695H211.508C209.587 260.695 207.877 259.978 206.454 258.543C205.032 257.109 204.32 255.315 204.32 253.233V250.291C204.32 248.138 205.031 246.344 206.454 244.98C207.877 243.617 209.585 242.899 211.579 242.899H217.693H218.141H224.491C226.554 242.899 228.262 243.617 229.614 244.98C230.72 246.096 231.397 247.499 231.607 249.151V250.291V251.762V253.233V267.795V268.519H241.214V254.023V249.501V248.773H241.198H241.198Z" fill="#2B2A29"/>
<path d="M31.3665 235.148L27.5267 241.459C26.6727 242.822 25.7484 243.826 24.8234 244.472C23.8991 245.117 22.6895 245.404 21.1959 245.404H9.67494V235.148H0.00195312V268.498H9.67494V253.149H18.9916C21.0552 253.149 22.5482 253.508 23.5441 254.154C24.5394 254.799 25.4637 255.875 26.3184 257.381L32.5762 268.498H43.4581L35.4214 253.939C34.1401 251.572 32.4342 250.282 30.2292 249.995C32.2915 249.492 33.9278 248.345 35.1361 246.48L42.3905 235.148H31.3665V235.148Z" fill="#2B2A29"/>
<path fill-rule="evenodd" clip-rule="evenodd" d="M424.097 61.3859C424.456 61.7134 424.799 62.0601 425.125 62.4227C427.42 64.9823 428.823 68.3691 428.823 72.0709V115.313L485.999 86.4855V57.657C485.999 25.9494 460.27 0.000610352 428.823 0.000610352H363.223L424.097 61.3866V61.3859Z" fill="#EF7F1A"/>
<path fill-rule="evenodd" clip-rule="evenodd" d="M228.707 57.6564C228.707 25.9455 202.977 0 171.531 0H136.078H134.107H105.9L166.544 61.1533C167.087 61.6253 167.594 62.1364 168.062 62.6833C170.221 65.2097 171.531 68.4938 171.531 72.0709V103.578V129.727V201.798H228.707V144.142V103.578V57.657V57.6564Z" fill="#EF7F1A"/>
<path fill-rule="evenodd" clip-rule="evenodd" d="M228.707 57.6564C228.707 25.9455 202.977 0 171.531 0H136.078H134.107H105.9L166.544 61.1533C167.087 61.6253 167.594 62.1364 168.062 62.6833C170.221 65.2097 171.531 68.4938 171.531 72.0709V103.578V129.727V201.798H228.707V144.142V103.578V57.657V57.6564Z" fill="url(#paint0_linear_223_3312)"/>
<path fill-rule="evenodd" clip-rule="evenodd" d="M166.544 61.1534L105.9 0.00012207H57.1781C25.7313 0.00012207 0.00195312 25.9456 0.00195312 57.6565V123.79L61.0975 62.1809C63.7074 59.3993 67.3974 57.6565 71.4719 57.6565H134.107H136.077H157.236C160.783 57.6565 164.039 58.977 166.544 61.1534Z" fill="url(#paint1_linear_223_3312)"/>
<path fill-rule="evenodd" clip-rule="evenodd" d="M257.296 144.141C257.296 175.852 283.025 201.798 314.472 201.798H338.972H343.06H371.715L318.183 139.391C315.88 136.829 314.472 133.436 314.472 129.727V72.0703C314.472 68.1544 316.041 64.5899 318.577 61.9852L257.295 123.782V144.141H257.296Z" fill="url(#paint2_linear_223_3312)"/>
<path fill-rule="evenodd" clip-rule="evenodd" d="M257.295 144.141C257.295 175.852 283.024 201.798 314.471 201.798H338.971H343.059H371.714L318.183 139.391C315.879 136.829 314.471 133.436 314.471 129.727V80.7188L257.295 123.782V144.141V144.141Z" fill="url(#paint3_linear_223_3312)"/>
<path fill-rule="evenodd" clip-rule="evenodd" d="M318.18 139.387L371.714 201.798H394.522H428.824H486L485.998 144.141H428.824H414.53H400.236H394.522H343.06H338.971H328.766C324.582 144.141 320.804 142.305 318.18 139.387H318.18Z" fill="url(#paint4_linear_223_3312)"/>
<path fill-rule="evenodd" clip-rule="evenodd" d="M371.715 201.797H394.522H428.824H486L485.999 144.141H428.824H414.53H400.236H394.522H343.06H338.971H337.342L371.715 201.797Z" fill="url(#paint5_linear_223_3312)"/>
</g>
<defs>
<linearGradient id="paint0_linear_223_3312" x1="167.305" y1="0" x2="167.305" y2="201.798" gradientUnits="userSpaceOnUse">
<stop stop-color="#F7AB3F"/>
<stop offset="1" stop-color="#EA5927"/>
</linearGradient>
<linearGradient id="paint1_linear_223_3312" x1="0.00326793" y1="61.8952" x2="166.545" y2="61.8952" gradientUnits="userSpaceOnUse">
<stop stop-color="#27A5DE"/>
<stop offset="1" stop-color="#332B65"/>
</linearGradient>
<linearGradient id="paint2_linear_223_3312" x1="314.506" y1="201.798" x2="314.506" y2="61.9879" gradientUnits="userSpaceOnUse">
<stop stop-color="#D2D81B"/>
<stop offset="0.0313725" stop-color="#6DA029"/>
<stop offset="0.458824" stop-color="#086A37"/>
<stop offset="1" stop-color="#076838"/>
</linearGradient>
<linearGradient id="paint3_linear_223_3312" x1="314.505" y1="61.9879" x2="314.505" y2="201.798" gradientUnits="userSpaceOnUse">
<stop stop-color="#D2D81B"/>
<stop offset="1" stop-color="#076838"/>
</linearGradient>
<linearGradient id="paint4_linear_223_3312" x1="486" y1="170.592" x2="318.181" y2="170.592" gradientUnits="userSpaceOnUse">
<stop stop-color="#E42126"/>
<stop offset="0.0705882" stop-color="#A7212A"/>
<stop offset="0.490196" stop-color="#6D202E"/>
<stop offset="1" stop-color="#69202E"/>
</linearGradient>
<linearGradient id="paint5_linear_223_3312" x1="318.182" y1="170.592" x2="486" y2="170.592" gradientUnits="userSpaceOnUse">
<stop stop-color="#E42126"/>
<stop offset="1" stop-color="#69202E"/>
</linearGradient>
<clipPath id="clip0_223_3312">
<rect width="486" height="269" fill="white"/>
</clipPath>
</defs>
</svg>
