<svg width="200" height="200" viewBox="0 0 200 200" fill="none" xmlns="http://www.w3.org/2000/svg">
<path d="M27.9405 74.5869C33.3697 51.4417 51.4416 33.3698 74.5868 27.9407C91.302 24.0198 108.698 24.0198 125.413 27.9407C148.558 33.3698 166.63 51.4418 172.059 74.587C175.98 91.3022 175.98 108.698 172.059 125.413C166.63 148.558 148.558 166.63 125.413 172.059C108.698 175.98 91.302 175.98 74.5868 172.059C51.4416 166.63 33.3697 148.558 27.9405 125.413C24.0197 108.698 24.0197 91.3021 27.9405 74.5869Z" fill="url(#paint0_linear_335_2549)"/>
<path d="M27.9405 125.413L24.0462 126.327L27.9405 125.413ZM27.9405 74.5869L24.0462 73.6735L27.9405 74.5869ZM172.059 74.587L168.165 75.5005L172.059 74.587ZM172.059 125.413L168.165 124.5L172.059 125.413ZM125.413 172.059L124.499 168.165L125.413 172.059ZM74.5868 172.059L75.5003 168.165L74.5868 172.059ZM74.5868 27.9407L75.5003 31.835L74.5868 27.9407ZM125.413 27.9407L124.499 31.835L125.413 27.9407ZM31.8348 124.5C28.0549 108.385 28.0549 91.6148 31.8348 75.5004L24.0462 73.6735C19.9844 90.9895 19.9844 109.011 24.0462 126.327L31.8348 124.5ZM168.165 75.5005C171.945 91.6148 171.945 108.385 168.165 124.5L175.954 126.327C180.015 109.011 180.015 90.9895 175.954 73.6735L168.165 75.5005ZM124.499 168.165C108.385 171.945 91.6147 171.945 75.5003 168.165L73.6734 175.954C90.9894 180.015 109.01 180.015 126.326 175.954L124.499 168.165ZM75.5003 31.835C91.6147 28.055 108.385 28.055 124.499 31.835L126.326 24.0464C109.01 19.9846 90.9894 19.9846 73.6733 24.0464L75.5003 31.835ZM75.5003 168.165C53.8342 163.083 36.917 146.166 31.8348 124.5L24.0462 126.327C29.8223 150.951 49.0491 170.178 73.6734 175.954L75.5003 168.165ZM126.326 175.954C150.951 170.178 170.177 150.951 175.954 126.327L168.165 124.5C163.083 146.166 146.166 163.083 124.499 168.165L126.326 175.954ZM124.499 31.835C146.166 36.9171 163.083 53.8343 168.165 75.5005L175.954 73.6735C170.177 49.0492 150.951 29.8224 126.326 24.0464L124.499 31.835ZM73.6733 24.0464C49.0491 29.8224 29.8223 49.0492 24.0462 73.6735L31.8348 75.5004C36.917 53.8343 53.8341 36.9171 75.5003 31.835L73.6733 24.0464Z" fill="url(#paint1_linear_335_2549)"/>
<path d="M79.9117 95.0883C78.3496 93.5262 75.8169 93.5262 74.2548 95.0883C72.6927 96.6504 72.6927 99.183 74.2548 100.745L79.9117 95.0883ZM93.7499 114.583L90.9215 117.412C91.6885 118.179 92.7342 118.601 93.8189 118.583C94.9035 118.564 95.934 118.106 96.6741 117.313L93.7499 114.583ZM125.841 86.0626C127.348 84.4476 127.261 81.9165 125.646 80.4091C124.031 78.9018 121.5 78.9891 119.992 80.6041L125.841 86.0626ZM74.2548 100.745L90.9215 117.412L96.5783 111.755L79.9117 95.0883L74.2548 100.745ZM96.6741 117.313L125.841 86.0626L119.992 80.6041L90.8257 111.854L96.6741 117.313Z" fill="white"/>
<defs>
<linearGradient id="paint0_linear_335_2549" x1="100.001" y1="1.79504" x2="100.001" y2="175.001" gradientUnits="userSpaceOnUse">
<stop stop-color="#D2D81B"/>
<stop offset="1" stop-color="#076838"/>
</linearGradient>
<linearGradient id="paint1_linear_335_2549" x1="100.001" y1="1.79504" x2="100.001" y2="175.001" gradientUnits="userSpaceOnUse">
<stop stop-color="#D2D81B"/>
<stop offset="1" stop-color="#076838"/>
</linearGradient>
</defs>
</svg>
