<svg width="36" height="36" viewBox="0 0 36 36" fill="none" xmlns="http://www.w3.org/2000/svg">
<path d="M5.02932 13.4256C6.00656 9.25951 9.25951 6.00656 13.4256 5.02931C16.4344 4.32356 19.5656 4.32356 22.5744 5.02932C26.7405 6.00656 29.9934 9.25951 30.9707 13.4257C31.6764 16.4344 31.6764 19.5656 30.9707 22.5744C29.9934 26.7405 26.7405 29.9934 22.5743 30.9707C19.5656 31.6764 16.4344 31.6764 13.4257 30.9707C9.25952 29.9934 6.00656 26.7405 5.02932 22.5744C4.32356 19.5656 4.32356 16.4344 5.02932 13.4256Z" stroke="currentColor" stroke-width="2.5"/>
<path d="M23.25 18L12.75 18M12.75 18L16.5 21.75M12.75 18L16.5 14.25" stroke="currentColor" stroke-width="2.5" stroke-linecap="round" stroke-linejoin="round"/>
</svg>
