<svg width="32" height="32" viewBox="0 0 32 32" fill="none" xmlns="http://www.w3.org/2000/svg">
<path fill-rule="evenodd" clip-rule="evenodd" d="M27.666 16C27.666 16.5523 27.2183 17 26.666 17L5.33322 17C4.78094 17 4.33322 16.5523 4.33322 16C4.33322 15.4478 4.78094 15 5.33322 15L26.666 15C27.2183 15 27.666 15.4478 27.666 16ZM23.2886 6.66671C23.2886 7.21899 22.8409 7.66671 22.2886 7.66671L5.33268 7.66671C4.7804 7.66671 4.33268 7.219 4.33268 6.66671C4.33268 6.11443 4.7804 5.66671 5.33268 5.66671L22.2886 5.66671C22.8409 5.66671 23.2886 6.11442 23.2886 6.66671ZM15.7035 25.3334C15.7035 25.8857 15.2558 26.3334 14.7035 26.3334L5.33268 26.3334C4.7804 26.3334 4.33268 25.8857 4.33268 25.3334C4.33268 24.7811 4.7804 24.3334 5.33268 24.3334L14.7035 24.3334C15.2558 24.3334 15.7035 24.7811 15.7035 25.3334Z" fill="#798999" stroke="#798999" stroke-width="1.5" stroke-linecap="round"/>
</svg>
