<svg width="28" height="28" viewBox="0 0 28 28" fill="none" xmlns="http://www.w3.org/2000/svg">
<path d="M17.6929 24.3641C18.7213 24.5453 19.7787 24.5453 20.8071 24.3641C22.4602 24.0728 23.7917 22.963 24.2503 21.4942L24.3476 21.1826C24.4487 20.8588 24.5 20.5239 24.5 20.1873C24.5 18.7031 23.1727 17.5 21.5354 17.5H16.9646C15.3273 17.5 14 18.7031 14 20.1873C14 20.5239 14.0513 20.8588 14.1524 21.1826L14.2497 21.4942C14.7083 22.963 16.0398 24.0728 17.6929 24.3641ZM17.6929 24.3641C10.5489 23.0404 4.95959 17.4511 3.63592 10.3071M3.63592 10.3071C3.45469 9.27867 3.45469 8.22133 3.63592 7.19287C3.92721 5.53982 5.03702 4.20832 6.50581 3.74969L6.81736 3.6524C7.1412 3.55128 7.47615 3.5 7.81271 3.5C9.29686 3.5 10.5 4.82729 10.5 6.46457L10.5 11.0354C10.5 12.6727 9.29686 14 7.81271 14C7.47615 14 7.1412 13.9487 6.81736 13.8476L6.50581 13.7503C5.03701 13.2917 3.92721 11.9602 3.63592 10.3071Z" stroke="currentColor" stroke-width="2"/>
</svg>
