<svg width="40" height="40" viewBox="0 0 40 40" fill="none" xmlns="http://www.w3.org/2000/svg">
<path fill-rule="evenodd" clip-rule="evenodd" d="M14.6814 5.5505C18.1838 4.8165 21.8136 4.8165 25.316 5.5505L26.0486 5.70404C29.0711 6.33747 31.6983 7.93737 33.5496 10.1527C33.8518 10.5143 33.7502 11.0357 33.351 11.3L22.2891 18.6252C20.9139 19.5358 19.0835 19.5358 17.7082 18.6252L6.64635 11.3C6.24716 11.0357 6.14557 10.5143 6.44776 10.1527C8.2991 7.93738 10.9263 6.33747 13.9488 5.70404L14.6814 5.5505ZM5.54013 13.6422C5.07692 13.3355 4.43121 13.5114 4.25585 14.0199C4.15791 14.3039 4.07029 14.5925 3.9934 14.8853C3.11157 18.2441 3.11157 21.7559 3.9934 25.1147C5.20104 29.7144 9.05734 33.2708 13.9488 34.296L14.6814 34.4495C18.1838 35.1835 21.8136 35.1835 25.316 34.4495L26.0486 34.296C30.9401 33.2708 34.7964 29.7144 36.004 25.1147C36.8858 21.7559 36.8858 18.2441 36.004 14.8853C35.9271 14.5925 35.8395 14.3039 35.7415 14.0198C35.5662 13.5113 34.9205 13.3355 34.4573 13.6422L23.8161 20.6887C21.524 22.2065 18.4733 22.2065 16.1813 20.6887L5.54013 13.6422Z" fill="#798999"/>
</svg>
