<svg width="40" height="40" viewBox="0 0 40 40" fill="none" xmlns="http://www.w3.org/2000/svg">
<path fill-rule="evenodd" clip-rule="evenodd" d="M15.3787 5.04494C14.5351 5.12649 13.3225 5.37985 12.5081 5.64474C10.5891 6.26897 9.16647 7.13982 7.65654 8.61457C6.13293 10.1026 5.21181 11.5366 4.57277 13.4151C4.0116 15.0645 4 15.196 4 19.8893C4 23.6895 4.01726 24.2359 4.15738 24.8588C4.9661 28.4554 7.24796 31.5158 10.3651 33.1846C10.7951 33.4148 11.0648 33.8616 11.0682 34.3492L11.084 36.6293C11.105 39.64 11.1091 39.7037 11.2899 39.8501C11.7159 40.1952 11.7662 40.1577 14.6344 37.357C16.3709 35.6614 18.6959 34.7031 21.1229 34.6827L21.3951 34.6804C25.1203 34.6492 25.5098 34.6322 26.1907 34.4705C30.6635 33.409 34.059 30.3963 35.4586 26.2477C35.988 24.6788 36 24.5374 36 19.8893C36 16.0874 35.9826 15.5401 35.8417 14.8938C35.3259 12.5294 34.2473 10.5253 32.5685 8.81234C30.4555 6.65632 27.8757 5.40641 24.8644 5.07986C24.1 4.99695 16.1767 4.96774 15.3787 5.04494ZM23.2952 9.99112C27.1156 10.7621 29.9359 14.1304 29.9382 17.9252C29.9387 18.6199 29.8339 19.5615 29.7126 19.9543C29.6396 20.1906 29.2061 20.3736 28.9475 20.2773C28.5865 20.1429 28.5171 19.9129 28.6378 19.2511C28.7027 18.8955 28.7269 18.2748 28.7 17.6566C28.6253 15.9379 28.0053 14.4888 26.8172 13.2553C25.4278 11.8128 23.873 11.1237 21.7195 10.9955C20.9536 10.95 20.7241 10.9062 20.5964 10.7812C20.3871 10.5762 20.3934 10.3585 20.6167 10.0805C20.7914 9.86303 20.8279 9.85551 21.7103 9.85551C22.2124 9.85551 22.9256 9.91657 23.2952 9.99112ZM14.5414 11.9492C14.8946 12.1133 17.7338 14.9095 17.9359 15.2922C18.4344 16.2364 18.0421 17.2503 17.0011 17.7077C16.1163 18.0964 15.6489 18.7869 15.7654 19.5328C16.0287 21.2177 18.3284 23.7581 20.2166 24.45C21.2941 24.8449 22.1879 24.5148 22.6964 23.5343C22.9766 22.9939 23.3201 22.636 23.6896 22.4993C24.031 22.3729 24.7465 22.3858 25.0818 22.5243C25.385 22.6495 28.2712 25.4897 28.5495 25.9366C28.7706 26.2919 28.7725 27.0274 28.5535 27.4893C28.3442 27.9306 26.3613 29.8384 25.842 30.098C24.7962 30.6208 22.9005 30.3235 20.8468 29.3146C20.1576 28.976 18.3094 27.7762 17.515 27.1517C13.9376 24.3395 10.9558 20.3175 10.2278 17.3224C9.96011 16.2213 10.0115 15.1127 10.3589 14.4908C10.6904 13.8974 12.7087 11.9507 13.1187 11.8287C13.4985 11.7158 14.1598 11.7718 14.5414 11.9492ZM23.0859 12.3295C24.1431 12.5944 24.9036 13.0312 25.7617 13.8666C26.9389 15.0128 27.497 16.2852 27.5093 17.8515C27.5128 18.2909 27.4713 18.7122 27.4145 18.8162C27.2619 19.0955 26.9291 19.1885 26.628 19.036C26.315 18.8775 26.2506 18.6838 26.3219 18.1165C26.395 17.535 26.1852 16.5484 25.8434 15.867C25.5106 15.2034 24.7266 14.3827 24.0545 13.9943C23.266 13.5387 22.5405 13.3481 21.5845 13.3456C20.6666 13.3431 20.436 13.2259 20.436 12.7622C20.436 12.2979 20.7043 12.1611 21.6156 12.1611C22.1243 12.1611 22.6571 12.2222 23.0859 12.3295ZM23.1693 14.881C24.2611 15.4073 25.0423 16.5055 25.1244 17.6289C25.1611 18.1317 25.1434 18.2251 24.9809 18.3842C24.572 18.7847 24.074 18.4599 23.9864 17.7355C23.9165 17.1569 23.6768 16.7154 23.1982 16.2833C22.8039 15.9274 22.1419 15.6623 21.6472 15.6623C21.4924 15.6623 21.3439 15.5828 21.2271 15.4373C20.9994 15.1539 21.0006 15.0591 21.2354 14.7668C21.4162 14.5417 21.4508 14.5331 22.021 14.5731C22.4501 14.6032 22.7722 14.6896 23.1693 14.881Z" fill="currentColor"/>
</svg>
