<svg width="28" height="28" viewBox="0 0 28 28" fill="none" xmlns="http://www.w3.org/2000/svg">
<path d="M3.36759 17.6765L4.33812 17.4355L3.36759 17.6765ZM3.36759 10.3235L2.39707 10.0825L3.36759 10.3235ZM24.635 10.3235L25.6056 10.0826L24.635 10.3235ZM24.635 17.6765L25.6056 17.9174L24.635 17.6765ZM17.6362 24.1021L17.4198 23.1258H17.4198L17.6362 24.1021ZM10.3665 24.1021L10.5828 23.1258L10.3665 24.1021ZM10.3665 3.89789L10.1501 2.92157L10.1501 2.92157L10.3665 3.89789ZM17.6362 3.89789L17.4198 4.87421V4.87421L17.6362 3.89789ZM9.83696 23.9848L9.62062 24.9611L9.83696 23.9848ZM18.1657 23.9848L18.382 24.9611H18.382L18.1657 23.9848ZM18.1657 4.01522L18.382 3.0389V3.0389L18.1657 4.01522ZM9.83696 4.01522L10.0533 4.99154H10.0533L9.83696 4.01522ZM5.60192 6.77013C5.15254 6.44907 4.52798 6.5531 4.20693 7.00248C3.88587 7.45186 3.9899 8.07642 4.43928 8.39748L5.60192 6.77013ZM11.7642 12.4017L11.1829 13.2154L11.7642 12.4017ZM16.2384 12.4017L16.8198 13.2154L16.2384 12.4017ZM23.5634 8.39748C24.0127 8.07642 24.1168 7.45186 23.7957 7.00248C23.4746 6.5531 22.8501 6.44907 22.4007 6.77013L23.5634 8.39748ZM10.0533 4.99154L10.5828 4.87421L10.1501 2.92157L9.62062 3.0389L10.0533 4.99154ZM17.4198 4.87421L17.9493 4.99154L18.382 3.0389L17.8525 2.92157L17.4198 4.87421ZM17.9493 23.0085L17.4198 23.1258L17.8525 25.0784L18.382 24.9611L17.9493 23.0085ZM10.5828 23.1258L10.0533 23.0085L9.62062 24.9611L10.1501 25.0784L10.5828 23.1258ZM4.33812 17.4355C3.77792 15.1794 3.77792 12.8206 4.33812 10.5645L2.39707 10.0825C1.75827 12.6551 1.75827 15.3449 2.39707 17.9175L4.33812 17.4355ZM23.6645 10.5645C24.2247 12.8206 24.2247 15.1794 23.6645 17.4355L25.6056 17.9174C26.2444 15.3449 26.2444 12.6551 25.6056 10.0826L23.6645 10.5645ZM17.4198 23.1258C15.1681 23.6247 12.8345 23.6247 10.5828 23.1258L10.1501 25.0784C12.6868 25.6405 15.3158 25.6405 17.8525 25.0784L17.4198 23.1258ZM10.5828 4.87421C12.8345 4.37526 15.1681 4.37526 17.4198 4.87421L17.8525 2.92157C15.3158 2.35948 12.6868 2.35948 10.1501 2.92157L10.5828 4.87421ZM10.0533 23.0085C7.24533 22.3863 5.03144 20.2276 4.33812 17.4355L2.39707 17.9175C3.27328 21.4461 6.07132 24.1746 9.62062 24.9611L10.0533 23.0085ZM18.382 24.9611C21.9313 24.1746 24.7294 21.4461 25.6056 17.9174L23.6645 17.4355C22.9712 20.2276 20.7573 22.3863 17.9493 23.0085L18.382 24.9611ZM17.9493 4.99154C20.7573 5.61374 22.9712 7.77242 23.6645 10.5645L25.6056 10.0826C24.7294 6.55387 21.9313 3.82538 18.382 3.0389L17.9493 4.99154ZM9.62063 3.0389C6.07132 3.82538 3.27328 6.55386 2.39707 10.0825L4.33812 10.5645C5.03144 7.77242 7.24533 5.61374 10.0533 4.99154L9.62063 3.0389ZM4.43928 8.39748L11.1829 13.2154L12.3455 11.588L5.60192 6.77013L4.43928 8.39748ZM16.8198 13.2154L23.5634 8.39748L22.4007 6.77013L15.6571 11.588L16.8198 13.2154ZM11.1829 13.2154C12.8689 14.4199 15.1338 14.4199 16.8198 13.2154L15.6571 11.588C14.6666 12.2957 13.336 12.2957 12.3455 11.588L11.1829 13.2154Z" fill="currentColor"/>
</svg>
