<svg width="40" height="40" viewBox="0 0 40 40" fill="none" xmlns="http://www.w3.org/2000/svg">
<path fill-rule="evenodd" clip-rule="evenodd" d="M18.5754 5.03642C14.8109 5.42784 11.4716 7.1082 8.89892 9.90562C5.27356 13.8477 4.05883 19.5594 5.75246 24.7003C6.52021 27.0308 7.73747 28.9814 9.51571 30.7309C11.8714 33.0485 14.736 34.4382 18.164 34.9265C18.861 35.0258 21.1661 35.0241 21.8898 34.9239C25.331 34.4472 28.2933 32.977 30.6751 30.5636C33.0449 28.1623 34.4335 25.3173 34.9263 21.8529C35.0246 21.1622 35.0246 18.8449 34.9263 18.1542C34.6452 16.1778 34.0683 14.3937 33.1989 12.8117C32.5127 11.5629 31.7113 10.4934 30.6751 9.44347C28.3367 7.07403 25.4341 5.60977 22.0952 5.11509C21.3754 5.00842 19.2922 4.96192 18.5754 5.03642ZM27.0218 14.0987C27.2808 14.207 27.4052 14.4558 27.4052 14.8657C27.4052 15.2414 24.9251 27.03 24.7918 27.288C24.6038 27.6519 24.2022 27.7899 23.7891 27.6328C23.6517 27.5805 22.2947 26.6028 20.3126 25.1279L19.8208 24.762L18.7541 25.7808C17.9769 26.5231 17.6355 26.811 17.4961 26.8416C17.3909 26.8647 17.2916 26.8704 17.2754 26.8542C17.2592 26.838 17.3026 25.9835 17.3718 24.9553L17.4976 23.0858L17.9095 22.7042C18.1361 22.4943 19.725 21.0533 21.4405 19.5019C23.1559 17.9505 24.5595 16.6428 24.5595 16.5958C24.5595 16.5361 24.497 16.5121 24.3518 16.516C24.1838 16.5205 23.3131 17.0453 19.7976 19.2606C17.407 20.7671 15.4207 21.9997 15.3836 21.9997C15.2217 21.9997 11.5224 20.8099 11.3469 20.7013C10.9723 20.4696 11.052 20.1183 11.5413 19.8446C11.6687 19.7733 12.6037 19.3944 13.619 19.0027C14.6343 18.611 16.5475 17.8728 17.8706 17.3623C19.1937 16.8518 21.5568 15.9392 23.122 15.3343C26.5531 14.0081 26.5209 14.02 26.6883 14.0174C26.7619 14.0162 26.912 14.0528 27.0218 14.0987Z" fill="currentColor"/>
</svg>
