<svg width="36" height="36" viewBox="0 0 36 36" fill="none" xmlns="http://www.w3.org/2000/svg">
<path d="M30.185 14.5785C30.185 13.8882 29.6253 13.3285 28.935 13.3285C28.2446 13.3285 27.685 13.8882 27.685 14.5785H30.185ZM8.31499 14.5785C8.31499 13.8882 7.75534 13.3285 7.06499 13.3285C6.37463 13.3285 5.81499 13.8882 5.81499 14.5785H8.31499ZM21.7699 31.0607L21.4825 29.8442L21.7699 31.0607ZM14.2301 31.0607L14.5175 29.8442L14.2301 31.0607ZM22.2426 7.52134L21.3556 8.40209L22.2426 7.52134ZM30.613 17.7253C31.0994 18.2152 31.8909 18.218 32.3807 17.7316C32.8706 17.2451 32.8734 16.4537 32.387 15.9638L30.613 17.7253ZM13.7574 7.52134L14.6444 8.40209V8.40209L13.7574 7.52134ZM3.61299 15.9638C3.12657 16.4537 3.12937 17.2451 3.61925 17.7316C4.10914 18.218 4.90059 18.2152 5.38701 17.7253L3.61299 15.9638ZM14.5776 27.4805L13.3491 27.2498L14.5776 27.4805ZM14.6066 27.3259L15.8352 27.5565L15.8352 27.5565L14.6066 27.3259ZM21.3934 27.3259L20.1648 27.5565L20.1648 27.5565L21.3934 27.3259ZM21.4224 27.4805L22.6509 27.2498V27.2498L21.4224 27.4805ZM20.9877 30.8278L19.859 30.2907L19.859 30.2907L20.9877 30.8278ZM19.6838 30.6588C19.3871 31.2821 19.652 32.028 20.2754 32.3246C20.8987 32.6213 21.6446 32.3564 21.9412 31.7331L19.6838 30.6588ZM15.0123 30.8278L13.8836 31.365L13.8836 31.365L15.0123 30.8278ZM14.0588 31.7331C14.3555 32.3564 15.1013 32.6213 15.7246 32.3246C16.348 32.028 16.6129 31.2821 16.3162 30.6588L14.0588 31.7331ZM17.0416 24.6638L16.7074 23.4593H16.7074L17.0416 24.6638ZM18.9584 24.6638L19.2926 23.4593L18.9584 24.6638ZM27.685 14.5785V21.9561H30.185V14.5785H27.685ZM8.31499 21.9561V14.5785H5.81499V21.9561H8.31499ZM21.4825 29.8442C19.1919 30.3853 16.8081 30.3853 14.5175 29.8442L13.9427 32.2772C16.6113 32.9076 19.3887 32.9076 22.0573 32.2772L21.4825 29.8442ZM14.5175 29.8442C10.8896 28.9871 8.31499 25.7242 8.31499 21.9561H5.81499C5.81499 26.8721 9.17562 31.151 13.9427 32.2772L14.5175 29.8442ZM22.0573 32.2772C26.8244 31.151 30.185 26.8721 30.185 21.9561H27.685C27.685 25.7242 25.1104 28.9871 21.4825 29.8442L22.0573 32.2772ZM21.3556 8.40209L30.613 17.7253L32.387 15.9638L23.1297 6.6406L21.3556 8.40209ZM12.8703 6.6406L3.61299 15.9638L5.38701 17.7253L14.6444 8.40209L12.8703 6.6406ZM23.1297 6.6406C22.1546 5.65862 21.3365 4.83089 20.5989 4.26416C19.8329 3.67555 19.0073 3.25 18 3.25V5.75C18.2354 5.75 18.531 5.82801 19.0757 6.24651C19.6488 6.6869 20.3307 7.36984 21.3556 8.40209L23.1297 6.6406ZM14.6444 8.40209C15.6693 7.36984 16.3512 6.6869 16.9243 6.24651C17.469 5.82801 17.7646 5.75 18 5.75V3.25C16.9927 3.25 16.1671 3.67555 15.4011 4.26416C14.6635 4.83089 13.8454 5.65862 12.8703 6.6406L14.6444 8.40209ZM15.8062 27.7111L15.8352 27.5565L13.3781 27.0953L13.3491 27.2498L15.8062 27.7111ZM20.1648 27.5565L20.1938 27.7111L22.6509 27.2498L22.6219 27.0953L20.1648 27.5565ZM19.859 30.2907L19.6838 30.6588L21.9412 31.7331L22.1164 31.365L19.859 30.2907ZM13.8836 31.365L14.0588 31.7331L16.3162 30.6588L16.141 30.2907L13.8836 31.365ZM20.1938 27.7111C20.3579 28.5853 20.2404 29.4892 19.859 30.2907L22.1164 31.365C22.7254 30.0851 22.9125 28.6435 22.6509 27.2498L20.1938 27.7111ZM13.3491 27.2498C13.0875 28.6435 13.2746 30.0851 13.8836 31.365L16.141 30.2907C15.7596 29.4892 15.6421 28.5853 15.8062 27.7111L13.3491 27.2498ZM17.3758 25.8683C17.7844 25.755 18.2156 25.755 18.6242 25.8683L19.2926 23.4593C18.4467 23.2246 17.5533 23.2246 16.7074 23.4593L17.3758 25.8683ZM22.6219 27.0953C22.2939 25.3479 21.0054 23.9346 19.2926 23.4593L18.6242 25.8683C19.4106 26.0865 20.0113 26.7387 20.1648 27.5565L22.6219 27.0953ZM15.8352 27.5565C15.9887 26.7387 16.5894 26.0865 17.3758 25.8683L16.7074 23.4593C14.9946 23.9346 13.7061 25.3479 13.3781 27.0953L15.8352 27.5565Z" fill="currentColor"/>
</svg>
