<svg width="36" height="36" viewBox="0 0 36 36" fill="none" xmlns="http://www.w3.org/2000/svg">
<path d="M5.78396 24.3767L6.99237 24.0569L5.78396 24.3767ZM5.79361 16.0548L4.5852 15.7351L5.79361 16.0548ZM30.2064 16.0548L31.4148 15.7351L30.2064 16.0548ZM30.216 24.3767L31.4244 24.6964L30.216 24.3767ZM23.0877 30.9766L23.3421 32.2004L23.3421 32.2004L23.0877 30.9766ZM12.9124 30.9766L12.6579 32.2004H12.6579L12.9124 30.9766ZM12.5952 9.55733L12.8496 10.7811L12.5952 9.55733ZM23.4048 9.55733L23.6593 8.3335L23.4048 9.55733ZM12.6793 30.9282L12.9338 29.7043L12.9338 29.7043L12.6793 30.9282ZM23.3207 30.9282L23.0662 29.7043L23.0662 29.7043L23.3207 30.9282ZM5.26719 19.4927H4.01719L6.51588 19.5499L5.26719 19.4927ZM9.91908 4.78596L9.58567 3.58124H9.58567L9.91908 4.78596ZM19.8694 9.06721L19.8697 10.3172L21.7461 10.3169L21.0228 8.58538L19.8694 9.06721ZM5.26719 20.9946L6.51588 20.9374L4.01719 20.9946H5.26719ZM5.26719 21.0207H4.01719V21.2379L4.09045 21.4423L5.26719 21.0207ZM5.26859 21.0246L4.09185 21.4462L6.51718 20.965L5.26859 21.0246ZM22.1218 11.9209C21.4409 11.8069 20.7966 12.2664 20.6826 12.9473C20.5685 13.6281 21.0281 14.2725 21.709 14.3865L22.1218 11.9209ZM21.9793 13.1644L22.1857 11.9316L21.9793 13.1644ZM25.3638 18.6606C25.3638 19.3509 25.9235 19.9106 26.6138 19.9106C27.3042 19.9106 27.8638 19.3509 27.8638 18.6606H25.3638ZM23.0662 29.7043L22.8332 29.7528L23.3421 32.2004L23.5752 32.152L23.0662 29.7043ZM13.1668 29.7528L12.9338 29.7043L12.4248 32.152L12.6579 32.2004L13.1668 29.7528ZM6.99237 24.0569C6.33023 21.5547 6.33837 18.8826 7.00202 16.3746L4.5852 15.7351C3.81216 18.6564 3.80099 21.7694 4.57555 24.6964L6.99237 24.0569ZM28.998 16.3746C29.6616 18.8826 29.6698 21.5547 29.0076 24.0569L31.4244 24.6964C32.199 21.7694 32.1878 18.6564 31.4148 15.7351L28.998 16.3746ZM22.8332 29.7528C19.6448 30.4157 16.3552 30.4157 13.1668 29.7528L12.6579 32.2004C16.1819 32.9332 19.8181 32.9332 23.3421 32.2004L22.8332 29.7528ZM12.8496 10.7811C16.2472 10.0747 19.7528 10.0747 23.1504 10.7811L23.6593 8.3335C19.926 7.55724 16.074 7.55724 12.3407 8.3335L12.8496 10.7811ZM12.9338 29.7043C10.052 29.1051 7.75023 26.9209 6.99237 24.0569L4.57555 24.6964C5.57437 28.471 8.61109 31.359 12.4248 32.152L12.9338 29.7043ZM23.5752 32.152C27.3889 31.359 30.4256 28.471 31.4244 24.6964L29.0076 24.0569C28.2498 26.9209 25.948 29.1051 23.0662 29.7043L23.5752 32.152ZM23.1504 10.7811C25.9732 11.3681 28.2517 13.5543 28.998 16.3746L31.4148 15.7351C30.4315 12.0191 27.4289 9.11732 23.6593 8.3335L23.1504 10.7811ZM12.3407 8.3335C8.57108 9.11732 5.56853 12.0191 4.5852 15.7351L7.00202 16.3746C7.74832 13.5543 10.0268 11.3681 12.8496 10.7811L12.3407 8.3335ZM4.01719 10.8782V19.4927H6.51719V10.8782H4.01719ZM9.58567 3.58124C6.32665 4.4832 4.01719 7.47134 4.01719 10.8782H6.51719C6.51719 8.60836 8.06396 6.59636 10.2525 5.99067L9.58567 3.58124ZM12.0146 3.25C11.1954 3.25 10.3724 3.3635 9.58567 3.58124L10.2525 5.99067C10.8251 5.83221 11.4238 5.75 12.0146 5.75V3.25ZM13.3016 3.25H12.0146V5.75H13.3016V3.25ZM21.0228 8.58538C20.3714 7.02605 19.1845 5.70596 17.8308 4.77756C16.4819 3.85252 14.8696 3.25 13.3016 3.25V5.75C14.2554 5.75 15.3838 6.13085 16.4168 6.8393C17.445 7.5444 18.2811 8.50791 18.716 9.54904L21.0228 8.58538ZM12.8496 10.7811C14.4876 10.4406 18.0489 10.3176 19.8697 10.3172L19.8692 7.81721C18.0712 7.81755 14.2649 7.93341 12.3407 8.3335L12.8496 10.7811ZM6.51588 19.5499C6.56494 18.4782 6.72753 17.4119 7.00202 16.3746L4.5852 15.7351C4.26489 16.9455 4.07561 18.188 4.0185 19.4356L6.51588 19.5499ZM4.01719 20.9946V21.0207H6.51719V20.9946H4.01719ZM4.09045 21.4423L4.09185 21.4462L6.44534 20.603L6.44393 20.5991L4.09045 21.4423ZM6.51718 20.965C6.51673 20.9558 6.5163 20.9466 6.51588 20.9374L4.0185 21.0519C4.019 21.0626 4.0195 21.0734 4.02001 21.0842L6.51718 20.965ZM21.709 14.3865L21.7729 14.3972L22.1857 11.9316L22.1218 11.9209L21.709 14.3865ZM21.7729 14.3972C23.8409 14.7435 25.3638 16.5433 25.3638 18.6606H27.8638C27.8638 15.3302 25.4665 12.4809 22.1857 11.9316L21.7729 14.3972Z" fill="currentColor"/>
</svg>
