<svg width="36" height="36" viewBox="0 0 36 36" fill="none" xmlns="http://www.w3.org/2000/svg">
<path d="M4.32809 13.2731C5.33707 9.20975 8.55902 6.06801 12.6458 5.16243L13.3266 5.01157C16.4049 4.32948 19.5951 4.32948 22.6734 5.01157L23.3542 5.16243C27.441 6.06801 30.6629 9.20976 31.6719 13.2731C32.4427 16.3772 32.4427 19.6228 31.6719 22.7269C30.6629 26.7902 27.441 29.932 23.3542 30.8376L22.6734 30.9884C19.5951 31.6705 16.4049 31.6705 13.3266 30.9884L12.6458 30.8376C8.55902 29.932 5.33707 26.7903 4.32809 22.7269C3.5573 19.6228 3.5573 16.3772 4.32809 13.2731Z" stroke="currentColor" stroke-width="2.5"/>
<path fill-rule="evenodd" clip-rule="evenodd" d="M18.0004 10.5C18.5739 10.5 19.0388 10.938 19.0388 11.4783V12.2786H19.1538C21.0851 12.2786 22.5 13.8602 22.5 15.6284C22.5 16.1687 22.0351 16.6067 21.4615 16.6067C20.888 16.6067 20.4231 16.1687 20.4231 15.6284C20.4231 14.777 19.7716 14.2351 19.1538 14.2351H19.0388V17.3149L20.4409 17.7952C21.7151 18.2316 22.5 19.4186 22.5 20.6757C22.5 22.2759 21.2176 23.7213 19.4499 23.7213H19.0388V24.5217C19.0388 25.062 18.5739 25.5 18.0004 25.5C17.4268 25.5 16.9619 25.062 16.9619 24.5217V23.7213H16.8462C14.9149 23.7213 13.5 22.1397 13.5 20.3715C13.5 19.8312 13.9649 19.3932 14.5385 19.3932C15.112 19.3932 15.5769 19.8312 15.5769 20.3715C15.5769 21.2228 16.2284 21.7648 16.8462 21.7648H16.9619V18.6853L15.5591 18.2047C14.285 17.7683 13.5 16.5813 13.5 15.3242C13.5 13.724 14.7824 12.2786 16.5501 12.2786H16.9619V11.4783C16.9619 10.938 17.4268 10.5 18.0004 10.5ZM16.9619 14.2351H16.5501C16.0958 14.2351 15.5769 14.6408 15.5769 15.3242C15.5769 15.8467 15.9001 16.2397 16.2688 16.366L16.9619 16.6034V14.2351ZM19.0388 19.3967V21.7648H19.4499C19.9042 21.7648 20.4231 21.3591 20.4231 20.6757C20.4231 20.1532 20.0999 19.7602 19.7312 19.6339L19.0388 19.3967Z" fill="currentColor"/>
</svg>
