<svg width="36" height="36" viewBox="0 0 36 36" fill="none" xmlns="http://www.w3.org/2000/svg">
<path d="M21.3037 23.0158C22.3946 22.768 23.3987 22.3109 24.2693 21.6901L25.9896 28.4504C26.5061 30.4801 24.3349 32.1669 22.4012 31.2382L19.502 29.8459C18.5556 29.3914 17.4444 29.3914 16.498 29.8459L13.5988 31.2382C11.6651 32.1669 9.49387 30.4801 10.0104 28.4504L11.7307 21.6901C12.6013 22.3109 13.6054 22.768 14.6963 23.0158M21.3037 23.0158C19.1307 23.5095 16.8693 23.5095 14.6963 23.0158M21.3037 23.0158C24.3126 22.3323 26.6619 20.0569 27.3677 17.1427C27.8774 15.0382 27.8774 12.8479 27.3677 10.7433C26.6619 7.8292 24.3126 5.55381 21.3037 4.87025C19.1307 4.37658 16.8693 4.37658 14.6963 4.87025C11.6874 5.55381 9.33807 7.8292 8.63228 10.7433C8.12257 12.8479 8.12257 15.0382 8.63228 17.1427C9.33807 20.0569 11.6874 22.3323 14.6963 23.0158" stroke="currentColor" stroke-width="2.5"/>
</svg>
