<svg width="40" height="40" viewBox="0 0 40 40" fill="none" xmlns="http://www.w3.org/2000/svg">
<path d="M11.8409 5C11.2795 5 10.7219 5.08559 10.1845 5.25342L9.77364 5.3817C7.38044 6.12898 5.64729 8.26648 5.19674 10.8233C4.93442 12.312 4.93442 13.8418 5.19674 15.3305C5.20706 15.3891 5.21805 15.4474 5.2297 15.5055C7.10674 25.2618 14.7381 32.8932 24.4944 34.7703C24.5525 34.7819 24.6109 34.7929 24.6695 34.8033C26.1582 35.0656 27.688 35.0656 29.1767 34.8033C31.7335 34.3527 33.871 32.6196 34.6183 30.2264L34.7466 29.8155C34.9144 29.2781 35 28.7205 35 28.1591C35 25.4607 32.6239 23.4615 29.9368 23.4615H23.9093C21.2222 23.4615 18.8462 25.4607 18.8462 28.1591C18.8462 28.7205 18.9317 29.2781 19.0996 29.8155L19.2279 30.2264C19.2717 30.3666 19.3202 30.5047 19.3734 30.6403C15.0265 28.4998 11.5002 24.9735 9.35973 20.6266C9.49534 20.6798 9.63336 20.7283 9.77364 20.7721L10.1845 20.9004C10.7219 21.0683 11.2795 21.1538 11.8409 21.1538C14.5393 21.1538 16.5385 18.7778 16.5385 16.0907L16.5385 10.0632C16.5385 7.37609 14.5393 5 11.8409 5Z" fill="currentColor"/>
</svg>
