<svg width="36" height="36" viewBox="0 0 36 36" fill="none" xmlns="http://www.w3.org/2000/svg">
<path d="M5.02932 22.5744L3.81235 22.8598L5.02932 22.5744ZM5.02932 13.4256L3.81235 13.1402L5.02932 13.4256ZM30.9707 13.4257L29.7537 13.7111L30.9707 13.4257ZM30.9707 22.5743L29.7537 22.2889L30.9707 22.5743ZM22.5743 30.9707L22.2889 29.7537L22.5743 30.9707ZM13.4257 30.9707L13.7111 29.7537L13.4257 30.9707ZM13.4256 5.02932L13.7111 6.24628L13.4256 5.02932ZM22.5744 5.02931L22.2889 6.24628L22.5744 5.02931ZM11.862 13.2151C11.3739 12.7269 10.5824 12.7269 10.0943 13.2151C9.60612 13.7032 9.60612 14.4947 10.0943 14.9829L11.862 13.2151ZM12.5386 15.6594L11.6547 16.5433C12.1428 17.0314 12.9343 17.0314 13.4225 16.5433L12.5386 15.6594ZM16.5433 13.4225C17.0314 12.9343 17.0314 12.1428 16.5433 11.6547C16.0551 11.1665 15.2637 11.1665 14.7755 11.6547L16.5433 13.4225ZM19.5604 13.6292C18.8701 13.6292 18.3104 14.1888 18.3104 14.8792C18.3104 15.5695 18.8701 16.1292 19.5604 16.1292V13.6292ZM25.0218 16.1292C25.7122 16.1292 26.2718 15.5695 26.2718 14.8792C26.2718 14.1888 25.7122 13.6292 25.0218 13.6292V16.1292ZM11.862 21.0171C11.3739 20.529 10.5824 20.529 10.0943 21.0171C9.60612 21.5053 9.60612 22.2968 10.0943 22.7849L11.862 21.0171ZM12.5386 23.4614L11.6547 24.3453C12.1428 24.8335 12.9343 24.8335 13.4225 24.3453L12.5386 23.4614ZM16.5433 21.2245C17.0314 20.7363 17.0314 19.9449 16.5433 19.4567C16.0551 18.9686 15.2637 18.9686 14.7755 19.4567L16.5433 21.2245ZM19.5604 21.4312C18.8701 21.4312 18.3104 21.9909 18.3104 22.6812C18.3104 23.3716 18.8701 23.9312 19.5604 23.9312V21.4312ZM25.0218 23.9312C25.7122 23.9312 26.2718 23.3716 26.2718 22.6812C26.2718 21.9909 25.7122 21.4312 25.0218 21.4312V23.9312ZM6.24628 22.2889C5.58457 19.4679 5.58457 16.5321 6.24628 13.7111L3.81235 13.1402C3.06255 16.3367 3.06255 19.6633 3.81235 22.8598L6.24628 22.2889ZM29.7537 13.7111C30.4154 16.5321 30.4154 19.4679 29.7537 22.2889L32.1877 22.8598C32.9375 19.6633 32.9374 16.3367 32.1877 13.1402L29.7537 13.7111ZM22.2889 29.7537C19.4679 30.4154 16.5321 30.4154 13.7111 29.7537L13.1402 32.1877C16.3367 32.9375 19.6633 32.9375 22.8598 32.1877L22.2889 29.7537ZM13.7111 6.24628C16.5321 5.58457 19.4679 5.58457 22.2889 6.24628L22.8598 3.81235C19.6633 3.06255 16.3367 3.06255 13.1402 3.81235L13.7111 6.24628ZM13.7111 29.7537C10.0072 28.8849 7.11511 25.9928 6.24628 22.2889L3.81235 22.8598C4.89801 27.4882 8.51186 31.102 13.1402 32.1877L13.7111 29.7537ZM22.8598 32.1877C27.4882 31.102 31.102 27.4882 32.1877 22.8598L29.7537 22.2889C28.8849 25.9928 25.9928 28.8849 22.2889 29.7537L22.8598 32.1877ZM22.2889 6.24628C25.9928 7.11511 28.8849 10.0072 29.7537 13.7111L32.1877 13.1402C31.102 8.51185 27.4882 4.89801 22.8598 3.81235L22.2889 6.24628ZM13.1402 3.81235C8.51185 4.89801 4.89801 8.51185 3.81235 13.1402L6.24628 13.7111C7.11511 10.0072 10.0072 7.11511 13.7111 6.24628L13.1402 3.81235ZM10.0943 14.9829L11.6547 16.5433L13.4225 14.7755L11.862 13.2151L10.0943 14.9829ZM13.4225 16.5433L16.5433 13.4225L14.7755 11.6547L11.6547 14.7755L13.4225 16.5433ZM19.5604 16.1292H25.0218V13.6292H19.5604V16.1292ZM10.0943 22.7849L11.6547 24.3453L13.4225 22.5775L11.862 21.0171L10.0943 22.7849ZM13.4225 24.3453L16.5433 21.2245L14.7755 19.4567L11.6547 22.5775L13.4225 24.3453ZM19.5604 23.9312H25.0218V21.4312H19.5604V23.9312Z" fill="currentColor"/>
</svg>
