<svg width="36" height="36" viewBox="0 0 36 36" fill="none" xmlns="http://www.w3.org/2000/svg">
<path d="M16.305 4.72003L15.9857 3.5115L15.9857 3.5115L16.305 4.72003ZM19.695 4.72003L19.3757 5.92856L19.3757 5.92856L19.695 4.72003ZM5.07525 24.6045L6.27726 24.2615L5.07525 24.6045ZM5.06996 16.4041L6.27198 16.7471H6.27198L5.06996 16.4041ZM30.93 16.4041L32.1321 16.0611L32.1321 16.0611L30.93 16.4041ZM30.9248 24.6045L32.1268 24.9476L30.9248 24.6045ZM23.9893 30.928L23.7527 29.7006L23.9893 30.928ZM12.0107 30.928L12.2473 29.7006L12.0107 30.928ZM13.1595 9.84061L13.3961 11.068L13.1595 9.84061ZM22.8405 9.84061L23.0772 8.61322L22.8405 9.84061ZM24.4509 10.1511L24.2142 11.3785L24.4509 10.1511ZM30.7906 15.9153L29.5885 16.2583V16.2583L30.7906 15.9153ZM11.5491 10.1511L11.3125 8.92371V8.92371L11.5491 10.1511ZM5.20945 15.9153L4.00744 15.5723H4.00744L5.20945 15.9153ZM16.6243 5.92856C17.5254 5.69048 18.4745 5.69048 19.3757 5.92856L20.0143 3.5115C18.6946 3.16283 17.3054 3.16283 15.9857 3.5115L16.6243 5.92856ZM25.5155 10.5947C25.5155 7.26414 23.2487 4.36602 20.0143 3.5115L19.3757 5.92856C21.5331 6.49855 23.0155 8.41961 23.0155 10.5947L25.5155 10.5947ZM12.9845 10.5947C12.9845 8.4196 14.4669 6.49854 16.6243 5.92856L15.9857 3.5115C12.7513 4.36602 10.4845 7.26413 10.4845 10.5947L12.9845 10.5947ZM11.7858 11.3785L13.3961 11.068L12.9228 8.61322L11.3125 8.92371L11.7858 11.3785ZM22.6039 11.068L24.2142 11.3785L24.6875 8.92371L23.0772 8.61322L22.6039 11.068ZM29.5885 16.2583L29.728 16.7471L32.1321 16.0611L31.9926 15.5723L29.5885 16.2583ZM6.27198 16.7471L6.41147 16.2583L4.00744 15.5723L3.86795 16.0611L6.27198 16.7471ZM6.27726 24.2615C5.57732 21.8088 5.57295 19.1967 6.27198 16.7471L3.86795 16.0611C3.04005 18.9622 3.04624 22.0496 3.87323 24.9476L6.27726 24.2615ZM29.728 16.7471C30.4271 19.1967 30.4227 21.8088 29.7227 24.2615L32.1268 24.9476C32.9538 22.0496 32.96 18.9622 32.1321 16.0611L29.728 16.7471ZM23.7527 29.7006C19.9536 30.4331 16.0464 30.4331 12.2473 29.7006L11.774 32.1554C15.8858 32.9482 20.1142 32.9482 24.226 32.1554L23.7527 29.7006ZM13.3961 11.068C16.4366 10.4818 19.5634 10.4818 22.6039 11.068L23.0772 8.61322C19.7241 7.96671 16.2759 7.96671 12.9228 8.61322L13.3961 11.068ZM12.2473 29.7006C9.377 29.1472 7.06626 27.0263 6.27726 24.2615L3.87323 24.9476C4.92278 28.6254 7.98488 31.4248 11.774 32.1554L12.2473 29.7006ZM24.226 32.1554C28.0151 31.4248 31.0772 28.6254 32.1268 24.9476L29.7227 24.2615C28.9337 27.0263 26.623 29.1472 23.7527 29.7006L24.226 32.1554ZM24.2142 11.3785C26.8054 11.8781 28.8787 13.7711 29.5885 16.2583L31.9926 15.5723C31.0201 12.1646 28.1898 9.59897 24.6875 8.92371L24.2142 11.3785ZM11.3125 8.92371C7.81024 9.59897 4.97991 12.1646 4.00744 15.5723L6.41147 16.2583C7.12126 13.7711 9.19464 11.8781 11.7858 11.3785L11.3125 8.92371ZM5.03526 17.8048C13.3945 20.8968 22.6055 20.8968 30.9647 17.8048L30.0975 15.4601C22.2979 18.3451 13.7021 18.3451 5.90255 15.4601L5.03526 17.8048Z" fill="currentColor"/>
<path d="M12 15.75V21" stroke="currentColor" stroke-width="2.5" stroke-linecap="round"/>
<path d="M24 15.75V21" stroke="currentColor" stroke-width="2.5" stroke-linecap="round"/>
</svg>
