<svg width="76" height="76" fill="none" xmlns="http://www.w3.org/2000/svg"><circle cx="38" cy="38" r="38" fill="#F2F3F7"/><path d="M22.832 53.408c0-5.228 3.678-9.682 8.675-10.506l.45-.074c4.003-.66 8.08-.66 12.083 0l.45.074c4.998.824 8.675 5.278 8.675 10.506 0 2.26-1.773 4.092-3.96 4.092H26.792c-2.188 0-3.961-1.832-3.961-4.092zm24.014-26.377c0 4.712-3.961 8.532-8.847 8.532-4.886 0-8.848-3.82-8.848-8.532 0-4.711 3.962-8.531 8.848-8.531 4.886 0 8.847 3.82 8.847 8.531z" fill="#fff"/><path d="M31.958 42.828l-.244-1.48.244 1.48zm12.082 0l.244-1.48-.244 1.48zm.45.074l-.244 1.48.244-1.48zm-12.983 0l.244 1.48-.244-1.48zm.244 1.48l.45-.074-.487-2.96-.45.074.488 2.96zm12.045-.074l.45.074.488-2.96-.45-.074-.488 2.96zM49.204 56H26.793v3h22.411v-3zM32.202 44.308a35.62 35.62 0 0111.594 0l.488-2.96a38.619 38.619 0 00-12.57 0l.488 2.96zm-10.87 9.1c0 3.042 2.4 5.592 5.461 5.592v-3c-1.314 0-2.461-1.114-2.461-2.592h-3zm30.333 0c0 1.478-1.147 2.592-2.46 2.592v3c3.061 0 5.46-2.55 5.46-5.592h-3zm3 0c0-5.927-4.174-11.037-9.931-11.986l-.488 2.96c4.239.7 7.42 4.497 7.42 9.026h3zm-30.333 0c0-4.53 3.18-8.327 7.42-9.026l-.489-2.96c-5.756.95-9.931 6.06-9.931 11.986h3zm21.014-26.377c0 3.833-3.238 7.032-7.347 7.032v3c5.662 0 10.347-4.44 10.347-10.032h-3zm-7.347 7.032c-4.11 0-7.348-3.2-7.348-7.032h-3c0 5.591 4.685 10.032 10.348 10.032v-3zM30.65 27.03C30.651 23.2 33.89 20 38 20v-3c-5.663 0-10.348 4.44-10.348 10.031h3zM38 20c4.11 0 7.347 3.199 7.347 7.031h3C48.347 21.441 43.663 17 38 17v3z" fill="#fff"/></svg>