<svg width="486" height="269" fill="none" xmlns="http://www.w3.org/2000/svg"><g clip-path="url(#clip0_223_3312)"><path fill-rule="evenodd" clip-rule="evenodd" d="M57.178 0H171.53c31.447 0 57.176 25.945 57.176 57.656v144.141H171.53V72.07c0-7.928-6.432-14.414-14.294-14.414H71.472c-7.861 0-14.294 6.487-14.294 14.414v57.656c0 7.928 6.433 14.414 14.294 14.414h71.47l-28.588 57.657H57.178c-31.446 0-57.176-25.946-57.176-57.657V57.655C.002 25.945 25.732 0 57.178 0z" fill="#1A92D0"/><path fill-rule="evenodd" clip-rule="evenodd" d="M57.178 0H171.53c31.447 0 57.176 25.945 57.176 57.656v144.141H171.53V72.07c0-7.928-6.432-14.414-14.294-14.414H71.472c-7.861 0-14.294 6.487-14.294 14.414v57.656c0 7.928 6.433 14.414 14.294 14.414h71.47l-28.588 57.657H57.178c-31.446 0-57.176-25.946-57.176-57.657V57.655C.002 25.945 25.732 0 57.178 0z" fill="#1A92D0"/><path fill-rule="evenodd" clip-rule="evenodd" d="M314.471 0h114.352c31.447 0 57.176 25.949 57.176 57.656v28.829l-57.176 28.828V72.07c0-7.928-6.435-14.414-14.294-14.414h-85.763c-7.862 0-14.294 6.487-14.294 14.414v57.657c0 7.927 6.432 14.413 14.294 14.413h157.232l.001 57.657H314.471c-31.447 0-57.176-25.946-57.176-57.657V57.656c0-31.711 25.729-57.657 57.176-57.657z" fill="#BBCF17"/><path fill-rule="evenodd" clip-rule="evenodd" d="M314.471 0h114.352c31.447 0 57.176 25.949 57.176 57.656v28.829l-57.176 28.828V72.07c0-7.928-6.435-14.414-14.294-14.414h-85.763c-7.862 0-14.294 6.487-14.294 14.414v57.657c0 7.927 6.432 14.413 14.294 14.413h157.232l.001 57.657H314.471c-31.447 0-57.176-25.946-57.176-57.657V57.656c0-31.711 25.729-57.657 57.176-57.657z" fill="#BBCF17"/><path d="M187.488 242.966v-7.818h-23.186c-3.769 0-7.041 1.363-9.743 4.016-2.703 2.654-4.055 6.097-4.055 10.327v4.663c0 4.232 1.28 7.674 3.84 10.328 2.561 2.653 5.903 4.016 9.957 4.016h22.475v-7.818h-19.629c-2.205 0-3.984-.645-5.263-2.008-1.28-1.362-1.921-3.227-1.921-5.593v-2.511c0-2.367.641-4.232 1.921-5.594 1.279-1.363 3.129-2.008 5.476-2.008h20.128zm-46.491 25.532v-33.35h-9.46v12.121h-22.759v-12.121h-9.46v33.35h9.46v-13.484h22.759v13.484h9.46zm-65.057 0c3.627 0 6.827-1.363 9.673-4.16 2.845-2.797 4.267-6.239 4.267-10.327v-4.519c0-4.087-1.422-7.53-4.339-10.255-2.915-2.726-6.188-4.089-9.814-4.089h-12.02c-3.698 0-7.041 1.363-10.028 4.089-2.988 2.725-4.482 6.168-4.482 10.255v4.662c0 4.089 1.423 7.531 4.269 10.256 2.844 2.725 6.045 4.088 9.671 4.088H75.94zm4.338-18.216v2.94c0 2.081-.71 3.873-2.133 5.307-1.422 1.434-3.129 2.152-5.05 2.152h-7.04c-1.92 0-3.628-.718-5.05-2.152-1.422-1.434-2.135-3.226-2.135-5.307v-2.94c0-2.152.712-3.946 2.134-5.308 1.423-1.363 3.13-2.081 5.121-2.081h7.042c2.062 0 3.769.718 5.12 2.081 1.352 1.362 2.063 3.156 2.063 5.308h-.072zm375.47 18.216v-16.855c0-3.155.71-5.378 2.205-6.74 1.493-1.364 3.343-2.01 5.619-2.01h21.194v-7.745h-24.04c-3.911 0-7.324 1.435-10.241 4.232-2.916 2.797-4.339 6.31-4.339 10.542v18.576h9.602zm-18.898 0v-33.35h-9.46v12.121h-22.759v-12.121h-9.459v33.35h9.459v-13.484h22.759v13.484h9.46zm-60.933-21.444v21.444h9.46v-33.35h-8.179l-23.328 21.301v-21.301h-9.53v33.35h8.321l23.256-21.444zm-38.172-4.088v-7.818h-40.966v7.818h15.576v25.532h9.459v-25.532h15.931zm-69.464-.073h12.731v25.605h9.531v-33.35h-29.73l-1.991 15.922c-.498 3.729-1.351 6.383-2.561 7.96-1.209 1.578-2.987 2.368-5.334 2.368h-2.347V269h3.627c4.765 0 8.25-1.435 10.384-4.303 2.134-2.869 3.556-7.101 4.338-12.767l1.352-9.037zm-27.083 5.88c-.161-3.773-1.581-6.971-4.326-9.534-2.917-2.727-6.191-4.091-9.82-4.091h-17.893c-3.701 0-7.046 1.364-10.034 4.091-2.989 2.727-4.484 6.171-4.484 10.262v4.664c0 4.091 1.423 7.535 4.27 10.261 2.847 2.727 6.049 4.092 9.679 4.092h13.255l3.633-7.823h-13.97c-1.921 0-3.631-.717-5.054-2.152-1.422-1.434-2.134-3.228-2.134-5.31v-2.942c0-2.153.711-3.947 2.134-5.311 1.423-1.363 3.131-2.081 5.125-2.081h12.912c2.063 0 3.771.718 5.123 2.081 1.106 1.116 1.783 2.519 1.993 4.171v19.368h9.607v-19.746h-.016zM31.366 235.148l-3.84 6.311c-.853 1.363-1.778 2.367-2.703 3.013-.924.645-2.134.932-3.627.932H9.675v-10.256H.002v33.35h9.673v-15.349h9.317c2.063 0 3.556.359 4.552 1.005.995.645 1.92 1.721 2.774 3.227l6.258 11.117h10.882l-8.037-14.559c-1.28-2.367-2.987-3.657-5.192-3.944 2.063-.503 3.699-1.65 4.907-3.515l7.255-11.332H31.367z" fill="#2B2A29"/><path fill-rule="evenodd" clip-rule="evenodd" d="M424.097 61.386c.359.327.702.674 1.028 1.037a14.42 14.42 0 013.698 9.648v43.242l57.176-28.828V57.657c0-31.708-25.729-57.656-57.176-57.656h-65.6l60.874 61.386v-.001zm-195.39-3.73c0-31.71-25.73-57.656-57.176-57.656H105.9l60.644 61.153c.543.472 1.05.983 1.518 1.53a14.417 14.417 0 013.469 9.388v129.727h57.176V57.657z" fill="#EF7F1A"/><path fill-rule="evenodd" clip-rule="evenodd" d="M228.707 57.656c0-31.71-25.73-57.656-57.176-57.656H105.9l60.644 61.153c.543.472 1.05.983 1.518 1.53a14.417 14.417 0 013.469 9.388v129.727h57.176V57.657z" fill="url(#paint0_linear_223_3312)"/><path fill-rule="evenodd" clip-rule="evenodd" d="M166.544 61.153L105.9 0H57.178C25.731 0 .002 25.946.002 57.657v66.133l61.095-61.61c2.61-2.78 6.3-4.523 10.375-4.523h85.764c3.547 0 6.803 1.32 9.308 3.496z" fill="url(#paint1_linear_223_3312)"/><path fill-rule="evenodd" clip-rule="evenodd" d="M257.296 144.141c0 31.711 25.729 57.657 57.176 57.657h57.243l-53.532-62.407a14.424 14.424 0 01-3.711-9.664V72.07c0-3.916 1.569-7.48 4.105-10.085l-61.282 61.797v20.359h.001z" fill="url(#paint2_linear_223_3312)"/><path fill-rule="evenodd" clip-rule="evenodd" d="M257.295 144.141c0 31.711 25.729 57.657 57.176 57.657h57.243l-53.531-62.407a14.42 14.42 0 01-3.712-9.664V80.719l-57.176 43.063v20.359z" fill="url(#paint3_linear_223_3312)"/><path fill-rule="evenodd" clip-rule="evenodd" d="M318.18 139.387l53.534 62.411H486l-.002-57.657H328.766c-4.184 0-7.962-1.836-10.586-4.754z" fill="url(#paint4_linear_223_3312)"/><path fill-rule="evenodd" clip-rule="evenodd" d="M371.715 201.797H486l-.001-57.656H337.342l34.373 57.656z" fill="url(#paint5_linear_223_3312)"/></g><defs><linearGradient id="paint0_linear_223_3312" x1="167.305" y1="0" x2="167.305" y2="201.798" gradientUnits="userSpaceOnUse"><stop stop-color="#F7AB3F"/><stop offset="1" stop-color="#EA5927"/></linearGradient><linearGradient id="paint1_linear_223_3312" x1=".003" y1="61.895" x2="166.545" y2="61.895" gradientUnits="userSpaceOnUse"><stop stop-color="#27A5DE"/><stop offset="1" stop-color="#332B65"/></linearGradient><linearGradient id="paint2_linear_223_3312" x1="314.506" y1="201.798" x2="314.506" y2="61.988" gradientUnits="userSpaceOnUse"><stop stop-color="#D2D81B"/><stop offset=".031" stop-color="#6DA029"/><stop offset=".459" stop-color="#086A37"/><stop offset="1" stop-color="#076838"/></linearGradient><linearGradient id="paint3_linear_223_3312" x1="314.505" y1="61.988" x2="314.505" y2="201.798" gradientUnits="userSpaceOnUse"><stop stop-color="#D2D81B"/><stop offset="1" stop-color="#076838"/></linearGradient><linearGradient id="paint4_linear_223_3312" x1="486" y1="170.592" x2="318.181" y2="170.592" gradientUnits="userSpaceOnUse"><stop stop-color="#E42126"/><stop offset=".071" stop-color="#A7212A"/><stop offset=".49" stop-color="#6D202E"/><stop offset="1" stop-color="#69202E"/></linearGradient><linearGradient id="paint5_linear_223_3312" x1="318.182" y1="170.592" x2="486" y2="170.592" gradientUnits="userSpaceOnUse"><stop stop-color="#E42126"/><stop offset="1" stop-color="#69202E"/></linearGradient><clipPath id="clip0_223_3312"><path fill="#fff" d="M0 0h486v269H0z"/></clipPath></defs></svg>