<svg width="200" height="200" fill="none" xmlns="http://www.w3.org/2000/svg"><path d="M27.94 74.587A62.595 62.595 0 0174.588 27.94a111.28 111.28 0 0150.826 0 62.595 62.595 0 0146.646 46.646 111.276 111.276 0 010 50.826 62.595 62.595 0 01-46.646 46.646 111.277 111.277 0 01-50.826 0 62.595 62.595 0 01-46.647-46.646 111.282 111.282 0 010-50.826z" fill="url(#paint0_linear_335_2549)"/><path d="M27.94 125.413l-3.894.914 3.895-.914zm0-50.826l-3.894-.913 3.895.913zm144.119 0l-3.894.913 3.894-.913zm0 50.826l-3.894-.913 3.894.913zm-46.646 46.646l-.914-3.894.914 3.894zm-50.826 0l.913-3.894-.913 3.894zm0-144.118l.913 3.894-.913-3.894zm50.826 0l-.914 3.894.914-3.894zM31.835 124.5a107.283 107.283 0 010-49l-7.789-1.826a115.282 115.282 0 000 52.653l7.789-1.827zm136.33-49a107.28 107.28 0 010 49l7.789 1.827a115.304 115.304 0 000-52.653l-7.789 1.826zm-43.666 92.665a107.276 107.276 0 01-48.999 0l-1.827 7.789a115.3 115.3 0 0052.653 0l-1.827-7.789zM75.5 31.835a107.276 107.276 0 0148.999 0l1.827-7.789a115.278 115.278 0 00-52.653 0l1.827 7.789zm0 136.33A58.595 58.595 0 0131.835 124.5l-7.789 1.827a66.595 66.595 0 0049.627 49.627l1.827-7.789zm50.826 7.789a66.597 66.597 0 0049.628-49.627l-7.789-1.827a58.594 58.594 0 01-43.666 43.665l1.827 7.789zm-1.827-144.119a58.594 58.594 0 0143.666 43.666l7.789-1.828a66.596 66.596 0 00-49.628-49.627l-1.827 7.789zm-50.826-7.789a66.595 66.595 0 00-49.627 49.628l7.789 1.826A58.595 58.595 0 0175.5 31.835l-1.827-7.789z" fill="url(#paint1_linear_335_2549)"/><path d="M79.912 95.088a4 4 0 00-5.657 5.657l5.657-5.657zm13.838 19.495l-2.829 2.829a4.003 4.003 0 005.753-.099l-2.924-2.73zm32.091-28.52a4 4 0 00-5.849-5.459l5.849 5.459zm-51.586 14.682l16.666 16.667 5.657-5.657-16.666-16.667-5.657 5.657zm22.42 16.568l29.166-31.25-5.849-5.459-29.166 31.25 5.848 5.459z" fill="#fff"/><defs><linearGradient id="paint0_linear_335_2549" x1="100.001" y1="1.795" x2="100.001" y2="175.001" gradientUnits="userSpaceOnUse"><stop stop-color="#D2D81B"/><stop offset="1" stop-color="#076838"/></linearGradient><linearGradient id="paint1_linear_335_2549" x1="100.001" y1="1.795" x2="100.001" y2="175.001" gradientUnits="userSpaceOnUse"><stop stop-color="#D2D81B"/><stop offset="1" stop-color="#076838"/></linearGradient></defs></svg>