<?xml version="1.0" encoding="utf-8"?><svg viewBox="0 0 40 40" xmlns="http://www.w3.org/2000/svg" xmlns:xlink="http://www.w3.org/1999/xlink"><style>:root>svg{display:none}:root>svg:target{display:block}</style><svg fill="none" viewBox="0 0 24 24" id="icon-add" xmlns="http://www.w3.org/2000/svg"><path d="M3.353 15.05l.73-.172-.73.172zm0-6.1l.73.172-.73-.172zm17.294 0l-.73.172.73-.172zm0 6.1l-.73-.172.73.172zm-5.597 5.597l.17.73-.17-.73zm-6.1 0l.172-.73-.172.73zm0-17.294l.172.73-.172-.73zm6.1 0l.17-.73-.17.73zM4.083 14.878a12.604 12.604 0 010-5.756l-1.46-.343a14.104 14.104 0 000 6.442l1.46-.343zm15.834-5.756a12.603 12.603 0 010 5.756l1.46.343a14.104 14.104 0 000-6.442l-1.46.343zm-5.039 10.795a12.603 12.603 0 01-5.756 0l-.343 1.46c2.119.497 4.323.497 6.442 0l-.343-1.46zM9.122 4.083a12.604 12.604 0 015.756 0l.343-1.46a14.103 14.103 0 00-6.442 0l.343 1.46zm0 15.834a6.761 6.761 0 01-5.039-5.039l-1.46.343a8.261 8.261 0 006.156 6.156l.343-1.46zm6.099 1.46a8.261 8.261 0 006.156-6.156l-1.46-.343a6.761 6.761 0 01-5.039 5.039l.343 1.46zm-.343-17.294a6.761 6.761 0 015.039 5.039l1.46-.343a8.261 8.261 0 00-6.156-6.156l-.343 1.46zM8.78 2.623a8.261 8.261 0 00-6.156 6.156l1.46.343a6.761 6.761 0 015.039-5.039l-.343-1.46zM14.5 12.75a.75.75 0 000-1.5v1.5zm-5-1.5a.75.75 0 000 1.5v-1.5zm1.75 3.25a.75.75 0 001.5 0h-1.5zm1.5-5a.75.75 0 00-1.5 0h1.5zm1.75 1.75h-5v1.5h5v-1.5zm-1.75 3.25v-5h-1.5v5h1.5z" fill="currentColor"/></svg><svg fill="none" viewBox="0 0 24 24" id="icon-arrow-back" xmlns="http://www.w3.org/2000/svg"><path d="M14.71 8.12L10.83 12l3.88 3.88a.996.996 0 11-1.41 1.41L8.71 12.7a.996.996 0 010-1.41L13.3 6.7a.996.996 0 011.41 0c.38.39.39 1.03 0 1.42z" fill="currentColor"/></svg><svg fill="none" viewBox="0 0 24 24" id="icon-camera" xmlns="http://www.w3.org/2000/svg"><path fill-rule="evenodd" clip-rule="evenodd" d="M8.155 5.653C8.717 4.107 10.225 3 12 3c1.774 0 3.283 1.107 3.845 2.653 2.33.579 4.166 2.349 4.783 4.635a10.761 10.761 0 010 5.61c-.642 2.378-2.602 4.197-5.063 4.7l-.42.085a15.749 15.749 0 01-6.29 0l-.42-.086c-2.461-.502-4.421-2.32-5.063-4.699a10.76 10.76 0 010-5.61c.617-2.286 2.454-4.056 4.783-4.635zM12 10.183c-1.644 0-2.976 1.303-2.976 2.91 0 1.608 1.332 2.911 2.976 2.911s2.976-1.303 2.976-2.91c0-1.608-1.332-2.911-2.976-2.911zm-1.824 2.91c0-.985.817-1.784 1.824-1.784 1.007 0 1.824.8 1.824 1.784 0 .986-.817 1.784-1.824 1.784-1.007 0-1.824-.798-1.824-1.784z" fill="#3676D4"/></svg><svg fill="none" viewBox="0 0 12 8" id="icon-caret" xmlns="http://www.w3.org/2000/svg"><path d="M11 1.5l-5 5-5-5" stroke="#363853" stroke-width="1.5" stroke-linecap="round" stroke-linejoin="round"/></svg><svg fill="none" viewBox="0 0 28 28" id="icon-close" xmlns="http://www.w3.org/2000/svg"><rect width="3.005" height="28.051" rx="1.503" transform="scale(1.0018 .99819) rotate(45 7.787 29.06)" fill="currentColor"/><rect width="3.005" height="28.051" rx="1.503" transform="scale(1.0018 .99819) rotate(-45 7.69 -1.05)" fill="currentColor"/></svg><svg fill="none" viewBox="0 0 16 10" id="icon-dropdown" xmlns="http://www.w3.org/2000/svg"><path d="M14.665 1.667L8 8.333 1.332 1.667" stroke="#798999" stroke-width="2.5" stroke-linecap="round" stroke-linejoin="round"/></svg><svg fill="none" viewBox="0 0 28 28" id="icon-email" xmlns="http://www.w3.org/2000/svg"><path d="M3.368 17.677l.97-.241-.97.24zm0-7.354l-.97-.24.97.24zm21.267 0l.97-.24-.97.24zm0 7.354l.97.24-.97-.24zm-6.999 6.425l-.216-.976.216.976zm-7.27 0l.217-.976-.216.976zm0-20.204l-.216-.976.216.976zm7.27 0l-.216.976.216-.976zM9.837 23.985l-.216.976.216-.976zm8.329 0l.216.976-.216-.976zm0-19.97l.216-.976-.216.976zm-8.329 0l.216.977-.216-.977zM5.602 6.77a1 1 0 10-1.163 1.627L5.602 6.77zm6.162 5.632l-.581.813.581-.813zm4.474 0l.582.813-.582-.813zm7.325-4.005a1 1 0 00-1.162-1.627l1.162 1.627zm-13.51-3.405l.53-.118-.433-1.952-.53.117.433 1.953zm7.367-.118l.53.118.432-1.953-.53-.117-.432 1.952zm.53 18.134l-.53.118.432 1.952.53-.117-.433-1.952zm-7.367.118l-.53-.117-.432 1.952.53.117.432-1.952zm-6.245-5.69a14.256 14.256 0 010-6.871l-1.94-.482a16.256 16.256 0 000 7.835l1.94-.482zm19.326-6.871c.56 2.256.56 4.614 0 6.87l1.942.482a16.255 16.255 0 000-7.834l-1.942.482zm-6.244 12.56a15.803 15.803 0 01-6.837 0l-.433 1.953c2.537.563 5.166.563 7.702 0l-.432-1.952zm-6.837-18.25a15.801 15.801 0 016.837 0l.432-1.953a17.802 17.802 0 00-7.702 0l.433 1.952zm-.53 18.134a7.578 7.578 0 01-5.715-5.573l-1.94.482A9.579 9.579 0 009.62 24.96l.432-1.952zm8.329 1.952a9.579 9.579 0 007.224-7.044l-1.942-.482a7.578 7.578 0 01-5.715 5.574l.433 1.952zm-.433-19.97a7.578 7.578 0 015.715 5.574l1.942-.482a9.578 9.578 0 00-7.224-7.044l-.433 1.953zM9.621 3.04a9.578 9.578 0 00-7.224 7.043l1.941.482a7.578 7.578 0 015.715-5.572l-.432-1.953zM4.439 8.397l6.744 4.818 1.162-1.627L5.602 6.77 4.439 8.397zm12.38 4.818l6.744-4.818-1.162-1.627-6.744 4.818 1.163 1.627zm-5.636 0a4.848 4.848 0 005.637 0l-1.163-1.627a2.848 2.848 0 01-3.312 0l-1.162 1.627z" fill="currentColor"/></svg><svg fill="none" viewBox="0 0 28 28" id="icon-exit" xmlns="http://www.w3.org/2000/svg"><path d="M21.425 6.258a10.745 10.745 0 012.873 5.471 10.86 10.86 0 01-.597 6.174 10.648 10.648 0 01-3.867 4.796A10.37 10.37 0 0114 24.5a10.37 10.37 0 01-5.833-1.8 10.648 10.648 0 01-3.868-4.797 10.862 10.862 0 01-.597-6.174 10.746 10.746 0 012.873-5.471M14 3.5v5.515" stroke="currentColor" stroke-width="2" stroke-linecap="round"/></svg><svg fill="none" viewBox="0 0 22 16" id="icon-eye" xmlns="http://www.w3.org/2000/svg"><path d="M11 2.5A9.77 9.77 0 0119.82 8 9.76 9.76 0 0111 13.5 9.76 9.76 0 012.18 8 9.77 9.77 0 0111 2.5zm0-2C6 .5 1.73 3.61 0 8c1.73 4.39 6 7.5 11 7.5s9.27-3.11 11-7.5C20.27 3.61 16 .5 11 .5zm0 5a2.5 2.5 0 010 5 2.5 2.5 0 010-5zm0-2C8.52 3.5 6.5 5.52 6.5 8s2.02 4.5 4.5 4.5 4.5-2.02 4.5-4.5-2.02-4.5-4.5-4.5z" fill="currentColor"/></svg><svg fill="none" viewBox="0 0 32 32" id="icon-hamburger" xmlns="http://www.w3.org/2000/svg"><path fill-rule="evenodd" clip-rule="evenodd" d="M27.666 16a1 1 0 01-1 1H5.333a1 1 0 110-2h21.333a1 1 0 011 1zm-4.377-9.333a1 1 0 01-1 1H5.333a1 1 0 110-2h16.956a1 1 0 011 1zm-7.586 18.666a1 1 0 01-1 1h-9.37a1 1 0 110-2h9.37a1 1 0 011 1z" fill="#798999" stroke="#798999" stroke-width="1.5" stroke-linecap="round"/></svg><svg fill="none" viewBox="0 0 36 36" id="icon-hide" xmlns="http://www.w3.org/2000/svg"><path d="M5.03 13.426a11.267 11.267 0 018.396-8.397 20.03 20.03 0 019.148 0 11.267 11.267 0 018.397 8.397c.705 3.008.705 6.14 0 9.148a11.267 11.267 0 01-8.397 8.397c-3.008.705-6.14.705-9.148 0a11.267 11.267 0 01-8.397-8.397 20.03 20.03 0 010-9.148z" stroke="currentColor" stroke-width="2.5"/><path d="M23.25 18h-10.5m0 0l3.75 3.75M12.75 18l3.75-3.75" stroke="currentColor" stroke-width="2.5" stroke-linecap="round" stroke-linejoin="round"/></svg><svg fill="none" viewBox="0 0 24 24" id="icon-id" xmlns="http://www.w3.org/2000/svg"><path d="M15.343 3.771c0-.426.345-.771.771-.771A4.886 4.886 0 0121 7.886a.771.771 0 01-1.543 0 3.343 3.343 0 00-3.343-3.343.771.771 0 01-.771-.772zM12 6.6a2.571 2.571 0 100 5.143A2.571 2.571 0 0012 6.6zM10.267 12.524a2.521 2.521 0 00-2.124 2.49v.19c0 .929.753 1.682 1.682 1.682h4.35c.93 0 1.682-.753 1.682-1.682v-.19c0-1.24-.9-2.295-2.123-2.49a11.004 11.004 0 00-3.467 0zM4.543 16.114a.771.771 0 10-1.543 0A4.886 4.886 0 007.886 21a.771.771 0 000-1.543 3.343 3.343 0 01-3.343-3.343zM3 7.886A4.886 4.886 0 017.886 3a.771.771 0 110 1.543 3.343 3.343 0 00-3.343 3.343.771.771 0 11-1.543 0zM21 16.114a.771.771 0 10-1.543 0 3.343 3.343 0 01-3.343 3.343.771.771 0 100 1.543A4.886 4.886 0 0021 16.114z" fill="currentColor"/></svg><svg fill="none" viewBox="0 0 14 10" id="icon-mark" xmlns="http://www.w3.org/2000/svg"><path d="M5.666 7.115L11.794.986l.944.943L5.666 9 1.424 4.757l.942-.942 3.3 3.3z" fill="#fff" stroke="#fff"/></svg><svg fill="none" viewBox="0 0 40 40" id="icon-messenger" xmlns="http://www.w3.org/2000/svg"><path fill-rule="evenodd" clip-rule="evenodd" d="M14.681 5.55a25.955 25.955 0 0110.635 0l.733.154c3.022.633 5.65 2.233 7.5 4.449.303.361.201.883-.198 1.147l-11.062 7.325a4.182 4.182 0 01-4.58 0L6.645 11.3c-.399-.264-.5-.786-.198-1.147 1.851-2.216 4.478-3.816 7.5-4.449l.733-.153zm-9.14 8.092c-.464-.306-1.11-.13-1.285.378-.098.284-.186.572-.263.865a20.108 20.108 0 000 10.23c1.208 4.6 5.064 8.156 9.956 9.181l.732.154c3.503.733 7.133.733 10.635 0l.733-.154c4.891-1.025 8.747-4.582 9.955-9.181.882-3.36.882-6.87 0-10.23a12.007 12.007 0 00-.262-.865c-.176-.509-.822-.684-1.285-.378l-10.64 7.047a6.97 6.97 0 01-7.636 0l-10.64-7.047z" fill="#798999"/></svg><svg fill="none" viewBox="0 0 24 24" id="icon-more" xmlns="http://www.w3.org/2000/svg"><path d="M20.647 15.05a7.511 7.511 0 01-5.597 5.597c-2.006.47-4.094.47-6.1 0a7.511 7.511 0 01-5.597-5.597 13.354 13.354 0 010-6.1A7.511 7.511 0 018.95 3.353c2.006-.47 4.094-.47 6.1 0a7.511 7.511 0 015.597 5.597c.47 2.006.47 4.094 0 6.1z" stroke="currentColor" stroke-width="1.5"/><path d="M8.5 12h7m0 0L13 9.5m2.5 2.5L13 14.5" stroke="currentColor" stroke-width="1.5" stroke-linecap="round" stroke-linejoin="round"/></svg><svg fill="none" viewBox="0 0 40 40" id="icon-phone" xmlns="http://www.w3.org/2000/svg"><path d="M11.84 5c-.56 0-1.118.086-1.655.253l-.411.129c-2.394.747-4.127 2.884-4.577 5.441a13.006 13.006 0 00.033 4.682 24.294 24.294 0 0019.44 19.298c1.488.263 3.018.263 4.507 0 2.556-.45 4.694-2.183 5.441-4.577l.129-.41A5.554 5.554 0 0035 28.159c0-2.698-2.376-4.697-5.063-4.697h-6.028c-2.687 0-5.063 1.999-5.063 4.697 0 .562.086 1.12.254 1.657l.128.41c.044.14.092.279.145.414A22.009 22.009 0 019.36 20.627c.135.053.273.101.414.145l.41.128a5.55 5.55 0 001.657.254c2.698 0 4.697-2.376 4.697-5.063v-6.028C16.538 7.376 14.54 5 11.841 5z" fill="currentColor"/></svg><svg fill="none" viewBox="0 0 28 28" id="icon-phone-stroke" xmlns="http://www.w3.org/2000/svg"><path d="M17.693 24.364a8.988 8.988 0 003.114 0c1.653-.291 2.985-1.401 3.443-2.87l.098-.311c.1-.324.152-.66.152-.996 0-1.484-1.327-2.687-2.965-2.687h-4.57C15.327 17.5 14 18.703 14 20.187c0 .337.051.672.152.996l.098.311c.458 1.469 1.79 2.579 3.443 2.87zm0 0A17.547 17.547 0 013.636 10.307m0 0a8.987 8.987 0 010-3.114c.291-1.653 1.401-2.985 2.87-3.443l.311-.098c.324-.1.66-.152.996-.152 1.484 0 2.687 1.327 2.687 2.965v4.57C10.5 12.673 9.297 14 7.813 14c-.337 0-.672-.051-.996-.152l-.311-.098c-1.469-.458-2.579-1.79-2.87-3.443z" stroke="currentColor" stroke-width="2"/></svg><svg fill="none" viewBox="0 0 40 40" id="icon-telegram" xmlns="http://www.w3.org/2000/svg"><path fill-rule="evenodd" clip-rule="evenodd" d="M18.575 5.036c-3.764.392-7.103 2.072-9.676 4.87-3.625 3.942-4.84 9.653-3.147 14.794.768 2.33 1.985 4.281 3.764 6.03 2.355 2.318 5.22 3.708 8.648 4.196.697.1 3.002.098 3.726-.002 3.441-.477 6.403-1.947 8.785-4.36 2.37-2.402 3.759-5.247 4.251-8.711.099-.69.099-3.008 0-3.699-.28-1.976-.858-3.76-1.727-5.342a14.86 14.86 0 00-2.524-3.369c-2.338-2.369-5.24-3.833-8.58-4.328-.72-.107-2.803-.153-3.52-.079zm8.447 9.063c.259.108.383.357.383.767 0 .375-2.48 12.164-2.613 12.422-.188.364-.59.502-1.003.345-.137-.052-1.494-1.03-3.476-2.505l-.492-.366-1.067 1.019c-.777.742-1.119 1.03-1.258 1.06-.105.024-.204.03-.22.013-.017-.016.027-.87.096-1.899l.126-1.87.412-.38c.226-.21 1.815-1.652 3.53-3.203 1.716-1.551 3.12-2.86 3.12-2.906 0-.06-.063-.084-.208-.08-.168.005-1.039.53-4.554 2.745C17.407 20.767 15.42 22 15.384 22c-.162 0-3.862-1.19-4.037-1.299-.375-.231-.295-.583.194-.856.128-.072 1.063-.45 2.078-.842l4.252-1.64 5.251-2.029c3.431-1.326 3.399-1.314 3.566-1.317.074 0 .224.036.334.082z" fill="currentColor"/></svg><svg fill="none" viewBox="0 0 40 40" id="icon-viber" xmlns="http://www.w3.org/2000/svg"><path fill-rule="evenodd" clip-rule="evenodd" d="M15.379 5.045c-.844.081-2.056.335-2.87.6-1.92.624-3.343 1.495-4.852 2.97-1.524 1.488-2.445 2.922-3.084 4.8C4.012 15.065 4 15.196 4 19.89c0 3.8.017 4.347.157 4.97.81 3.596 3.091 6.657 6.208 8.326.43.23.7.677.703 1.164l.016 2.28c.021 3.011.025 3.075.206 3.221.426.345.476.308 3.344-2.493a9.4 9.4 0 016.489-2.674l.272-.003c3.725-.03 4.115-.048 4.796-.21 4.473-1.061 7.868-4.074 9.268-8.222.529-1.57.541-1.71.541-6.359 0-3.802-.017-4.349-.158-4.995-.516-2.365-1.595-4.369-3.273-6.082-2.114-2.156-4.693-3.406-7.705-3.732-.764-.083-8.687-.112-9.485-.035zm7.916 4.946c3.82.771 6.64 4.14 6.643 7.934 0 .695-.104 1.636-.225 2.03-.073.236-.507.419-.765.322-.361-.134-.43-.364-.31-1.026.065-.356.089-.976.062-1.594-.075-1.72-.695-3.168-1.883-4.402-1.39-1.442-2.944-2.131-5.098-2.26-.765-.045-.995-.089-1.123-.214-.209-.205-.203-.423.02-.7.175-.218.212-.225 1.094-.225.502 0 1.216.06 1.585.135zm-8.754 1.958c.354.164 3.193 2.96 3.395 3.343.498.944.106 1.958-.935 2.416-.885.388-1.352 1.079-1.236 1.825.264 1.685 2.563 4.225 4.452 4.917 1.077.395 1.97.065 2.48-.916.28-.54.623-.898.993-1.035.341-.126 1.056-.113 1.392.025.303.125 3.19 2.966 3.467 3.413.222.355.224 1.09.005 1.552-.21.442-2.193 2.35-2.712 2.609-1.046.523-2.941.226-4.995-.783-.69-.339-2.538-1.539-3.332-2.163-3.577-2.813-6.56-6.835-7.287-9.83-.268-1.1-.216-2.21.13-2.831.332-.594 2.35-2.54 2.76-2.662.38-.113 1.042-.057 1.423.12zm8.545.38c1.057.265 1.818.702 2.676 1.538 1.177 1.146 1.735 2.418 1.747 3.985.004.439-.038.86-.095.964-.152.28-.485.373-.786.22-.313-.159-.377-.352-.306-.92.073-.581-.137-1.568-.479-2.249-.332-.664-1.116-1.484-1.788-1.873-.789-.455-1.514-.646-2.47-.648-.918-.003-1.149-.12-1.149-.584 0-.464.268-.6 1.18-.6.508 0 1.041.06 1.47.167zm.083 2.552c1.092.526 1.873 1.625 1.955 2.748.037.503.02.596-.143.755-.409.4-.907.076-.995-.649-.07-.578-.31-1.02-.788-1.452-.394-.356-1.056-.62-1.55-.62a.544.544 0 01-.42-.226c-.229-.283-.227-.378.007-.67.181-.225.216-.234.786-.194.43.03.751.117 1.148.308z" fill="currentColor"/></svg><svg fill="none" viewBox="0 0 36 36" id="nav-award" xmlns="http://www.w3.org/2000/svg"><path d="M21.304 23.016a8.252 8.252 0 002.965-1.326l1.72 6.76c.517 2.03-1.654 3.717-3.588 2.788l-2.899-1.392a3.48 3.48 0 00-3.004 0l-2.9 1.392c-1.933.929-4.104-.758-3.588-2.788l1.72-6.76a8.252 8.252 0 002.966 1.326m6.608 0a14.923 14.923 0 01-6.608 0m6.608 0c3.009-.684 5.358-2.96 6.064-5.873.51-2.105.51-4.295 0-6.4-.706-2.914-3.055-5.19-6.064-5.873a14.924 14.924 0 00-6.608 0c-3.009.684-5.358 2.96-6.064 5.873a13.582 13.582 0 000 6.4c.706 2.914 3.055 5.19 6.064 5.873" stroke="currentColor" stroke-width="2.5"/></svg><svg fill="none" viewBox="0 0 36 36" id="nav-card" xmlns="http://www.w3.org/2000/svg"><path d="M4.804 13.05h26.392M4.328 22.727c-.77-3.104-.77-6.35 0-9.454a11.03 11.03 0 018.318-8.11l.68-.151a21.603 21.603 0 019.347 0l.681.15a11.03 11.03 0 018.318 8.111c.77 3.104.77 6.35 0 9.454a11.03 11.03 0 01-8.318 8.11l-.68.151a21.602 21.602 0 01-9.347 0l-.681-.15a11.03 11.03 0 01-8.318-8.111z" stroke="currentColor" stroke-width="2.5"/><path d="M10.5 18h6" stroke="currentColor" stroke-width="2.5" stroke-linecap="round"/></svg><svg fill="none" viewBox="0 0 36 36" id="nav-checklist" xmlns="http://www.w3.org/2000/svg"><path d="M5.03 22.574l-1.218.286 1.217-.286zm0-9.148l-1.218-.286 1.217.286zm25.94 0l-1.216.285 1.217-.285zm0 9.148l-1.216-.285 1.217.285zm-8.396 8.397l-.285-1.217.285 1.217zm-9.148 0l.285-1.217-.285 1.217zm0-25.942l.285 1.217-.285-1.217zm9.148 0l-.285 1.217.285-1.217zm-10.712 8.186a1.25 1.25 0 10-1.768 1.768l1.768-1.768zm.677 2.444l-.884.884a1.25 1.25 0 001.768 0l-.884-.884zm4.004-2.237a1.25 1.25 0 00-1.768-1.767l1.768 1.768zm3.017.207a1.25 1.25 0 000 2.5v-2.5zm5.462 2.5a1.25 1.25 0 000-2.5v2.5zm-13.16 4.888a1.25 1.25 0 00-1.768 1.768l1.768-1.768zm.677 2.444l-.884.884a1.25 1.25 0 001.768 0l-.884-.884zm4.004-2.236a1.25 1.25 0 00-1.768-1.768l1.768 1.767zm3.017.206a1.25 1.25 0 000 2.5v-2.5zm5.462 2.5a1.25 1.25 0 100-2.5v2.5zM6.246 22.29a18.78 18.78 0 010-8.578l-2.434-.57a21.28 21.28 0 000 9.719l2.434-.571zm23.508-8.578a18.78 18.78 0 010 8.578l2.434.57c.75-3.196.75-6.522 0-9.719l-2.434.571zm-7.465 16.043a18.78 18.78 0 01-8.578 0l-.57 2.434c3.196.75 6.522.75 9.719 0l-.571-2.434zM13.71 6.246a18.78 18.78 0 018.578 0l.57-2.434a21.28 21.28 0 00-9.719 0l.571 2.434zm0 23.508a10.017 10.017 0 01-7.465-7.465l-2.434.57a12.517 12.517 0 009.328 9.329l.571-2.434zm9.149 2.434a12.517 12.517 0 009.328-9.328l-2.434-.571a10.017 10.017 0 01-7.465 7.465l.57 2.434zm-.571-25.942a10.017 10.017 0 017.465 7.465l2.434-.57a12.517 12.517 0 00-9.328-9.329l-.571 2.434zM13.14 3.812a12.517 12.517 0 00-9.328 9.328l2.434.571a10.017 10.017 0 017.465-7.465l-.57-2.434zm-3.046 11.17l1.56 1.561 1.768-1.768-1.56-1.56-1.768 1.768zm3.329 1.561l3.12-3.12-1.768-1.768-3.12 3.12 1.768 1.768zm6.137-.414h5.462v-2.5H19.56v2.5zm-9.466 6.656l1.56 1.56 1.768-1.767-1.56-1.56-1.768 1.767zm3.329 1.56l3.12-3.12-1.768-1.768-3.12 3.12 1.768 1.768zm6.137-.414h5.462v-2.5H19.56v2.5z" fill="currentColor"/></svg><svg fill="none" viewBox="0 0 36 36" id="nav-dollar" xmlns="http://www.w3.org/2000/svg"><path d="M4.328 13.273a11.03 11.03 0 018.318-8.11l.68-.151a21.603 21.603 0 019.347 0l.681.15a11.03 11.03 0 018.318 8.111c.77 3.104.77 6.35 0 9.454a11.03 11.03 0 01-8.318 8.11l-.68.151a21.602 21.602 0 01-9.347 0l-.681-.15a11.03 11.03 0 01-8.318-8.111c-.77-3.104-.77-6.35 0-9.454z" stroke="currentColor" stroke-width="2.5"/><path fill-rule="evenodd" clip-rule="evenodd" d="M18 10.5c.574 0 1.039.438 1.039.978v.8h.115c1.931 0 3.346 1.582 3.346 3.35 0 .54-.465.979-1.038.979-.574 0-1.039-.438-1.039-.979 0-.851-.651-1.393-1.27-1.393h-.114v3.08l1.402.48a3.044 3.044 0 012.059 2.88c0 1.6-1.282 3.046-3.05 3.046h-.411v.8c0 .541-.465.979-1.039.979-.573 0-1.038-.438-1.038-.978v-.8h-.116c-1.931 0-3.346-1.582-3.346-3.35 0-.54.465-.979 1.039-.979.573 0 1.038.438 1.038.979 0 .85.651 1.393 1.27 1.393h.115v-3.08l-1.403-.48a3.044 3.044 0 01-2.059-2.88c0-1.601 1.282-3.046 3.05-3.046h.412v-.8c0-.541.465-.979 1.038-.979zm-1.038 3.735h-.412c-.454 0-.973.406-.973 1.09 0 .522.323.915.692 1.041l.693.237v-2.368zm2.077 5.162v2.368h.41c.455 0 .974-.406.974-1.09 0-.522-.323-.915-.692-1.041l-.692-.237z" fill="currentColor"/></svg><svg fill="none" viewBox="0 0 36 36" id="nav-folder" xmlns="http://www.w3.org/2000/svg"><path d="M5.784 24.377l1.208-.32-1.208.32zm.01-8.322l-1.209-.32 1.209.32zm24.412 0l1.209-.32-1.209.32zm.01 8.322l1.208.32-1.208-.32zm-7.128 6.6l.254 1.223-.254-1.223zm-10.176 0l-.254 1.223.254-1.223zm-.317-21.42l.255 1.224-.255-1.224zm10.81 0l.254-1.223-.254 1.223zM12.679 30.928l.255-1.224-.255 1.224zm10.642 0l-.255-1.224.255 1.224zM5.267 19.493h-1.25l2.499.057-1.249-.057zM9.92 4.786l-.333-1.205.333 1.205zm9.95 4.281v1.25h1.877l-.723-1.732-1.154.482zM5.267 20.995l1.249-.058-2.499.058h1.25zm0 .026h-1.25v.217l.073.204 1.177-.421zm.002.004l-1.177.421 2.425-.481-1.248.06zm16.853-9.104a1.25 1.25 0 10-.413 2.466l.413-2.466zm-.143 1.243l.207-1.232-.207 1.232zm3.385 5.497a1.25 1.25 0 002.5 0h-2.5zm-2.298 11.043l-.233.049.51 2.447.232-.048-.509-2.448zm-9.9.049l-.232-.049-.51 2.448.234.048.509-2.447zm-6.174-5.696a15.087 15.087 0 01.01-7.682l-2.417-.64a17.587 17.587 0 00-.01 8.961l2.417-.64zm22.006-7.682c.664 2.508.672 5.18.01 7.682l2.416.64c.775-2.928.764-6.04-.01-8.962l-2.416.64zm-6.165 13.378a23.741 23.741 0 01-9.666 0l-.51 2.447c3.525.733 7.161.733 10.685 0l-.509-2.447zM12.85 10.78a25.3 25.3 0 0110.3 0l.51-2.447a27.797 27.797 0 00-11.32 0l.51 2.447zm.084 18.923a7.796 7.796 0 01-5.942-5.647l-2.416.64a10.296 10.296 0 007.849 7.455l.509-2.448zm10.641 2.448a10.296 10.296 0 007.85-7.456l-2.417-.64a7.796 7.796 0 01-5.942 5.648l.51 2.448zm-.425-21.37c2.823.586 5.102 2.772 5.848 5.593l2.417-.64c-.983-3.716-3.986-6.618-7.756-7.401l-.509 2.447zM12.34 8.333c-3.769.783-6.771 3.685-7.755 7.401l2.417.64c.746-2.82 3.025-5.007 5.848-5.594l-.51-2.447zm-8.323 2.544v8.615h2.5v-8.615h-2.5zm5.569-7.297c-3.26.902-5.569 3.89-5.569 7.297h2.5c0-2.27 1.547-4.282 3.735-4.887l-.666-2.41zm2.429-.331c-.82 0-1.643.114-2.43.331l.667 2.41a6.641 6.641 0 011.763-.241v-2.5zm1.287 0h-1.287v2.5h1.287v-2.5zm7.72 5.335c-.65-1.559-1.837-2.879-3.191-3.807-1.35-.925-2.961-1.528-4.53-1.528v2.5c.954 0 2.083.38 3.116 1.09 1.028.704 1.864 1.668 2.299 2.709l2.307-.964zm-8.172 2.196c1.638-.34 5.199-.463 7.02-.464v-2.5c-1.799 0-5.605.116-7.53.517l.51 2.447zM6.516 19.55c.049-1.072.212-2.138.486-3.175l-2.417-.64c-.32 1.21-.51 2.453-.566 3.7l2.497.115zm-2.499 1.445v.026h2.5v-.026h-2.5zm.073.447l.002.004 2.353-.843-.001-.004-2.354.843zm2.427-.477l-.001-.028-2.497.115.001.032 2.497-.119zm15.192-6.579l.064.011.413-2.465-.064-.011-.413 2.466zm.064.011a4.315 4.315 0 013.59 4.264h2.5c0-3.33-2.396-6.18-5.677-6.73l-.413 2.466z" fill="currentColor"/></svg><svg fill="none" viewBox="0 0 36 36" id="nav-home" xmlns="http://www.w3.org/2000/svg"><path d="M30.185 14.579a1.25 1.25 0 00-2.5 0h2.5zm-21.87 0a1.25 1.25 0 00-2.5 0h2.5zM21.77 31.06l-.287-1.217.287 1.217zm-7.54 0l.287-1.217-.287 1.217zm8.013-23.54l-.887.881.887-.88zm8.37 10.204a1.25 1.25 0 101.774-1.761l-1.774 1.761zM13.757 7.521l.887.881-.887-.88zM3.613 15.964a1.25 1.25 0 001.774 1.761l-1.774-1.761zM14.578 27.48l-1.229-.23 1.229.23zm.029-.154l1.228.23-1.228-.23zm6.786 0l-1.228.23 1.228-.23zm.03.154l1.228-.23-1.229.23zm-.435 3.348l-1.129-.537 1.129.537zm-1.304-.17a1.25 1.25 0 102.257 1.075l-2.257-1.074zm-4.672.17l-1.128.537 1.128-.537zm-.953.905a1.25 1.25 0 002.257-1.074l-2.257 1.074zm2.983-7.07l-.335-1.204.335 1.205zm1.916 0l.335-1.204-.335 1.205zm8.727-10.085v7.378h2.5V14.58h-2.5zm-19.37 7.378V14.58h-2.5v7.377h2.5zm13.168 7.888c-2.291.541-4.675.541-6.966 0l-.574 2.433c2.668.63 5.446.63 8.114 0l-.574-2.433zm-6.966 0c-3.627-.857-6.202-4.12-6.202-7.888h-2.5c0 4.916 3.36 9.195 8.128 10.321l.575-2.433zm7.54 2.433c4.767-1.126 8.128-5.405 8.128-10.32h-2.5c0 3.767-2.575 7.03-6.202 7.887l.574 2.433zm-.701-23.875l9.257 9.323 1.774-1.761L23.13 6.64l-1.774 1.761zM12.87 6.641l-9.257 9.323 1.774 1.761 9.257-9.323-1.774-1.761zm10.26 0c-.975-.982-1.793-1.81-2.531-2.377C19.833 3.676 19.007 3.25 18 3.25v2.5c.235 0 .531.078 1.076.497.573.44 1.255 1.123 2.28 2.155l1.774-1.761zm-8.486 1.761c1.025-1.032 1.707-1.715 2.28-2.155.545-.419.84-.497 1.076-.497v-2.5c-1.007 0-1.833.426-2.599 1.014-.737.567-1.556 1.395-2.53 2.377l1.773 1.761zm1.162 19.31l.03-.155-2.458-.462-.029.155 2.457.461zm4.359-.155l.029.154 2.457-.461-.03-.155-2.456.462zm-.306 2.734l-.175.368 2.257 1.074.175-.368-2.257-1.074zm-5.975 1.074l.175.368 2.257-1.074-.175-.368-2.257 1.074zm6.31-3.654a4.202 4.202 0 01-.335 2.58l2.257 1.074a6.702 6.702 0 00.535-4.115l-2.457.461zm-6.845-.461a6.702 6.702 0 00.535 4.115l2.257-1.074a4.202 4.202 0 01-.335-2.58l-2.457-.461zm4.027-1.382c.408-.113.84-.113 1.248 0l.669-2.409a4.834 4.834 0 00-2.586 0l.669 2.41zm5.246 1.227a4.661 4.661 0 00-3.33-3.636l-.668 2.41a2.16 2.16 0 011.54 1.688l2.458-.462zm-6.787.462a2.16 2.16 0 011.54-1.689l-.668-2.409a4.661 4.661 0 00-3.329 3.636l2.457.462z" fill="currentColor"/></svg><svg fill="none" viewBox="0 0 36 36" id="nav-user" xmlns="http://www.w3.org/2000/svg"><path d="M7.5 28.667c0-3.62 2.546-6.703 6.006-7.273l.312-.051a25.7 25.7 0 018.364 0l.312.051c3.46.57 6.006 3.654 6.006 7.273 0 1.565-1.228 2.833-2.742 2.833H10.242c-1.514 0-2.742-1.268-2.742-2.833zM24.125 10.406c0 3.262-2.742 5.906-6.125 5.906s-6.125-2.644-6.125-5.906C11.875 7.144 14.617 4.5 18 4.5s6.125 2.644 6.125 5.906z" stroke="currentColor" stroke-width="2.5"/></svg><svg fill="none" viewBox="0 0 36 36" id="nav-work" xmlns="http://www.w3.org/2000/svg"><path d="M16.305 4.72l-.32-1.208.32 1.208zm3.39 0l-.32 1.209.32-1.209zM5.075 24.605l1.202-.343-1.202.343zm-.005-8.2l1.202.342-1.202-.343zm25.86 0l1.202-.344-1.202.343zm-.005 8.2l1.202.343-1.202-.343zm-6.936 6.323l-.236-1.227.236 1.227zm-11.978 0l.236-1.227-.236 1.227zM13.16 9.841l.236 1.227-.237-1.227zm9.68 0l.237-1.228-.237 1.228zm1.61.31l-.236 1.228.237-1.228zm6.34 5.764l-1.201.343 1.202-.343zm-19.24-5.764l-.238-1.227.237 1.227zm-6.34 5.764l-1.203-.343 1.202.343zM16.623 5.93a5.389 5.389 0 012.752 0l.638-2.418a7.889 7.889 0 00-4.028 0l.638 2.418zm8.892 4.666c0-3.33-2.267-6.229-5.502-7.084l-.638 2.418c2.157.57 3.64 2.49 3.64 4.666h2.5zm-12.531 0c0-2.175 1.482-4.096 3.64-4.666l-.64-2.418c-3.234.855-5.5 3.753-5.5 7.084h2.5zm-1.2.784l1.611-.311-.473-2.455-1.61.31.473 2.456zm10.819-.311l1.61.31.474-2.454-1.61-.31-.474 2.454zm6.985 5.19l.139.49 2.404-.687-.14-.489-2.404.686zm-23.317.49l.14-.49-2.405-.686-.139.49 2.404.685zm.005 7.514a13.717 13.717 0 01-.005-7.515l-2.404-.686a16.217 16.217 0 00.005 8.887l2.404-.686zm23.451-7.515c.7 2.45.695 5.062-.005 7.515l2.404.686c.827-2.898.833-5.986.005-8.887l-2.404.686zm-5.975 12.954c-3.8.732-7.707.732-11.506 0l-.473 2.454c4.112.793 8.34.793 12.452 0l-.473-2.454zM13.396 11.068a24.325 24.325 0 019.208 0l.473-2.455a26.824 26.824 0 00-10.154 0l.473 2.455zm-1.149 18.633c-2.87-.554-5.18-2.675-5.97-5.44l-2.404.687c1.05 3.677 4.112 6.477 7.901 7.207l.473-2.454zm11.979 2.454c3.79-.73 6.851-3.53 7.9-7.207l-2.403-.686c-.79 2.764-3.1 4.885-5.97 5.439l.473 2.454zm-.012-20.776c2.591.5 4.665 2.392 5.375 4.88l2.404-.687c-.973-3.407-3.803-5.973-7.305-6.648l-.474 2.455zM11.313 8.924c-3.503.675-6.333 3.24-7.306 6.648l2.404.686c.71-2.487 2.784-4.38 5.375-4.88l-.473-2.454zm-6.278 8.88a37.4 37.4 0 0025.93 0l-.867-2.344a34.9 34.9 0 01-24.195 0l-.868 2.345z" fill="currentColor"/><path d="M12 15.75V21M24 15.75V21" stroke="currentColor" stroke-width="2.5" stroke-linecap="round"/></svg></svg>